solid 
facet normal -1 0 0
 outer loop
  vertex 359.07645 -890.0564 36.000008
  vertex 359.07645 -890.0564 30.000006
  vertex 359.07645 -895.0564 30.000004
 endloop
endfacet
facet normal -1 0 -0
 outer loop
  vertex 359.07645 -895.0564 30.000004
  vertex 359.07645 -901.0564 30.000004
  vertex 359.07645 -890.0564 36.000008
 endloop
endfacet
facet normal -1 0 0
 outer loop
  vertex 359.07645 -890.0564 36.000008
  vertex 359.07645 -901.0564 30.000004
  vertex 359.07645 -925.88135 30.000004
 endloop
endfacet
facet normal -1 0 0
 outer loop
  vertex 359.07645 -890.0564 36.000008
  vertex 359.07645 -925.88135 30.000004
  vertex 359.07645 -968.0564 36.000004
 endloop
endfacet
facet normal -1 0 0
 outer loop
  vertex 359.07645 -925.88135 30.000004
  vertex 359.07645 -945.50635 30.000002
  vertex 359.07645 -968.0564 36.000004
 endloop
endfacet
facet normal -1 0 0
 outer loop
  vertex 359.07645 -968.0564 36.000004
  vertex 359.07645 -945.50635 30.000002
  vertex 359.07645 -949.0564 30.000002
 endloop
endfacet
facet normal -1 0 0
 outer loop
  vertex 359.07645 -968.0564 36.000004
  vertex 359.07645 -949.0564 30.000002
  vertex 359.07645 -949.50635 30.000002
 endloop
endfacet
facet normal -1 0 0
 outer loop
  vertex 359.07645 -949.50635 30.000002
  vertex 359.07645 -953.0564 30.000002
  vertex 359.07645 -968.0564 36.000004
 endloop
endfacet
facet normal -1 0 0
 outer loop
  vertex 359.07645 -968.0564 36.000004
  vertex 359.07645 -953.0564 30.000002
  vertex 359.07645 -953.50635 30.000002
 endloop
endfacet
facet normal -1 0 0
 outer loop
  vertex 359.07645 -968.0564 36.000004
  vertex 359.07645 -953.50635 30.000002
  vertex 359.07645 -968.0564 30.000002
 endloop
endfacet
endsolid 
