solid 
facet normal 0 -1 0
 outer loop
  vertex 348.9745 -724.9962 36.000015
  vertex 348.9745 -724.9962 30.000013
  vertex 351.9745 -724.9962 30.000013
 endloop
endfacet
facet normal -0 -1 -0
 outer loop
  vertex 351.9745 -724.9962 30.000013
  vertex 357.9745 -724.9962 30.000013
  vertex 348.9745 -724.9962 36.000015
 endloop
endfacet
facet normal -1.9453437e-06 -1 -2.9180144e-06
 outer loop
  vertex 348.9745 -724.9962 36.000015
  vertex 357.9745 -724.9962 30.000013
  vertex 389.3495 -724.9963 30.000013
 endloop
endfacet
facet normal -7.875504e-07 -1 4.8729667e-06
 outer loop
  vertex 348.9745 -724.9962 36.000015
  vertex 389.3495 -724.9963 30.000013
  vertex 426.4745 -724.9963 36.000015
 endloop
endfacet
facet normal 0 -1 0
 outer loop
  vertex 426.4745 -724.9963 36.000015
  vertex 389.3495 -724.9963 30.000013
  vertex 426.4745 -724.9963 30.000013
 endloop
endfacet
endsolid 
