solid 
facet normal 0 -0 1
 outer loop
  vertex 77.00672 -1106.2606 37.32495
  vertex 76.78968 -1107.0707 37.32495
  vertex 81.52674 -1107.9056 37.32495
 endloop
endfacet
facet normal -0 0 1
 outer loop
  vertex 81.52674 -1107.9056 37.32495
  vertex 76.78968 -1107.0707 37.32495
  vertex 76.71668 -1107.9056 37.32495
 endloop
endfacet
facet normal 0 -0 1
 outer loop
  vertex 81.52674 -1107.9056 37.32495
  vertex 76.71668 -1107.9056 37.32495
  vertex 76.78968 -1108.7406 37.32495
 endloop
endfacet
facet normal 0 -0 1
 outer loop
  vertex 78.4347 -1104.2206 37.32495
  vertex 77.84168 -1104.8136 37.32495
  vertex 81.52674 -1107.9056 37.32495
 endloop
endfacet
facet normal -0 0 1
 outer loop
  vertex 81.52674 -1107.9056 37.32495
  vertex 77.84168 -1104.8136 37.32495
  vertex 77.360725 -1105.5006 37.32495
 endloop
endfacet
facet normal -0 0 1
 outer loop
  vertex 81.52674 -1107.9056 37.32495
  vertex 77.360725 -1105.5006 37.32495
  vertex 77.00672 -1106.2606 37.32495
 endloop
endfacet
facet normal 0 -0 1
 outer loop
  vertex 80.69068 -1103.1686 37.32495
  vertex 79.88172 -1103.3856 37.32495
  vertex 81.52674 -1107.9056 37.32495
 endloop
endfacet
facet normal -0 0 1
 outer loop
  vertex 81.52674 -1107.9056 37.32495
  vertex 79.88172 -1103.3856 37.32495
  vertex 79.12171 -1103.7396 37.32495
 endloop
endfacet
facet normal -0 0 1
 outer loop
  vertex 81.52674 -1107.9056 37.32495
  vertex 79.12171 -1103.7396 37.32495
  vertex 78.4347 -1104.2206 37.32495
 endloop
endfacet
facet normal -0 0 1
 outer loop
  vertex 83.17164 -1103.3856 37.32495
  vertex 82.3617 -1103.1686 37.32495
  vertex 81.52674 -1107.9056 37.32495
 endloop
endfacet
facet normal 0 0 1
 outer loop
  vertex 81.52674 -1107.9056 37.32495
  vertex 82.3617 -1103.1686 37.32495
  vertex 81.52674 -1103.0956 37.32495
 endloop
endfacet
facet normal -0 0 1
 outer loop
  vertex 81.52674 -1107.9056 37.32495
  vertex 81.52674 -1103.0956 37.32495
  vertex 80.69068 -1103.1686 37.32495
 endloop
endfacet
facet normal -0 0 1
 outer loop
  vertex 85.2107 -1104.8136 37.32495
  vertex 84.61866 -1104.2206 37.32495
  vertex 81.52674 -1107.9056 37.32495
 endloop
endfacet
facet normal 0 0 1
 outer loop
  vertex 81.52674 -1107.9056 37.32495
  vertex 84.61866 -1104.2206 37.32495
  vertex 83.93165 -1103.7396 37.32495
 endloop
endfacet
facet normal 0 0 1
 outer loop
  vertex 81.52674 -1107.9056 37.32495
  vertex 83.93165 -1103.7396 37.32495
  vertex 83.17164 -1103.3856 37.32495
 endloop
endfacet
facet normal -0 0 1
 outer loop
  vertex 86.26368 -1107.0707 37.32495
  vertex 86.04664 -1106.2606 37.32495
  vertex 81.52674 -1107.9056 37.32495
 endloop
endfacet
facet normal 0 0 1
 outer loop
  vertex 81.52674 -1107.9056 37.32495
  vertex 86.04664 -1106.2606 37.32495
  vertex 85.69166 -1105.5006 37.32495
 endloop
endfacet
facet normal 0 0 1
 outer loop
  vertex 81.52674 -1107.9056 37.32495
  vertex 85.69166 -1105.5006 37.32495
  vertex 85.2107 -1104.8136 37.32495
 endloop
endfacet
facet normal 0 0 1
 outer loop
  vertex 86.04664 -1109.5507 37.32495
  vertex 86.26368 -1108.7406 37.32495
  vertex 81.52674 -1107.9056 37.32495
 endloop
endfacet
facet normal 0 0 1
 outer loop
  vertex 81.52674 -1107.9056 37.32495
  vertex 86.26368 -1108.7406 37.32495
  vertex 86.33668 -1107.9056 37.32495
 endloop
endfacet
facet normal 0 0 1
 outer loop
  vertex 81.52674 -1107.9056 37.32495
  vertex 86.33668 -1107.9056 37.32495
  vertex 86.26368 -1107.0707 37.32495
 endloop
endfacet
facet normal 0 0 1
 outer loop
  vertex 84.61866 -1111.5906 37.32495
  vertex 85.2107 -1110.9977 37.32495
  vertex 81.52674 -1107.9056 37.32495
 endloop
endfacet
facet normal 0 0 1
 outer loop
  vertex 81.52674 -1107.9056 37.32495
  vertex 85.2107 -1110.9977 37.32495
  vertex 85.69166 -1110.3107 37.32495
 endloop
endfacet
facet normal 0 0 1
 outer loop
  vertex 81.52674 -1107.9056 37.32495
  vertex 85.69166 -1110.3107 37.32495
  vertex 86.04664 -1109.5507 37.32495
 endloop
endfacet
facet normal 0 0 1
 outer loop
  vertex 82.3617 -1112.6426 37.32495
  vertex 83.17164 -1112.4257 37.32495
  vertex 81.52674 -1107.9056 37.32495
 endloop
endfacet
facet normal 0 0 1
 outer loop
  vertex 81.52674 -1107.9056 37.32495
  vertex 83.17164 -1112.4257 37.32495
  vertex 83.93165 -1112.0717 37.32495
 endloop
endfacet
facet normal 0 0 1
 outer loop
  vertex 81.52674 -1107.9056 37.32495
  vertex 83.93165 -1112.0717 37.32495
  vertex 84.61866 -1111.5906 37.32495
 endloop
endfacet
facet normal 0 0 1
 outer loop
  vertex 79.88172 -1112.4257 37.32495
  vertex 80.69068 -1112.6426 37.32495
  vertex 81.52674 -1107.9056 37.32495
 endloop
endfacet
facet normal 0 -0 1
 outer loop
  vertex 81.52674 -1107.9056 37.32495
  vertex 80.69068 -1112.6426 37.32495
  vertex 81.52674 -1112.7156 37.32495
 endloop
endfacet
facet normal 0 -0 1
 outer loop
  vertex 81.52674 -1107.9056 37.32495
  vertex 81.52674 -1112.7156 37.32495
  vertex 82.3617 -1112.6426 37.32495
 endloop
endfacet
facet normal 0 0 1
 outer loop
  vertex 77.84168 -1110.9977 37.32495
  vertex 78.4347 -1111.5906 37.32495
  vertex 81.52674 -1107.9056 37.32495
 endloop
endfacet
facet normal 0 -0 1
 outer loop
  vertex 81.52674 -1107.9056 37.32495
  vertex 78.4347 -1111.5906 37.32495
  vertex 79.12171 -1112.0717 37.32495
 endloop
endfacet
facet normal 0 -0 1
 outer loop
  vertex 81.52674 -1107.9056 37.32495
  vertex 79.12171 -1112.0717 37.32495
  vertex 79.88172 -1112.4257 37.32495
 endloop
endfacet
facet normal 0 0 1
 outer loop
  vertex 76.78968 -1108.7406 37.32495
  vertex 77.00672 -1109.5507 37.32495
  vertex 81.52674 -1107.9056 37.32495
 endloop
endfacet
facet normal 0 -0 1
 outer loop
  vertex 81.52674 -1107.9056 37.32495
  vertex 77.00672 -1109.5507 37.32495
  vertex 77.360725 -1110.3107 37.32495
 endloop
endfacet
facet normal 0 -0 1
 outer loop
  vertex 81.52674 -1107.9056 37.32495
  vertex 77.360725 -1110.3107 37.32495
  vertex 77.84168 -1110.9977 37.32495
 endloop
endfacet
facet normal 0 -0 1
 outer loop
  vertex 90.6067 -1106.2606 37.32495
  vertex 90.389656 -1107.0707 37.32495
  vertex 95.12672 -1107.9056 37.32495
 endloop
endfacet
facet normal -0 0 1
 outer loop
  vertex 95.12672 -1107.9056 37.32495
  vertex 90.389656 -1107.0707 37.32495
  vertex 90.31666 -1107.9056 37.32495
 endloop
endfacet
facet normal 0 -0 1
 outer loop
  vertex 95.12672 -1107.9056 37.32495
  vertex 90.31666 -1107.9056 37.32495
  vertex 90.389656 -1108.7406 37.32495
 endloop
endfacet
facet normal 0 -0 1
 outer loop
  vertex 92.034676 -1104.2206 37.32495
  vertex 91.44166 -1104.8136 37.32495
  vertex 95.12672 -1107.9056 37.32495
 endloop
endfacet
facet normal -0 0 1
 outer loop
  vertex 95.12672 -1107.9056 37.32495
  vertex 91.44166 -1104.8136 37.32495
  vertex 90.9607 -1105.5006 37.32495
 endloop
endfacet
facet normal -0 0 1
 outer loop
  vertex 95.12672 -1107.9056 37.32495
  vertex 90.9607 -1105.5006 37.32495
  vertex 90.6067 -1106.2606 37.32495
 endloop
endfacet
facet normal 0 -0 1
 outer loop
  vertex 94.29066 -1103.1686 37.32495
  vertex 93.4817 -1103.3856 37.32495
  vertex 95.12672 -1107.9056 37.32495
 endloop
endfacet
facet normal -0 0 1
 outer loop
  vertex 95.12672 -1107.9056 37.32495
  vertex 93.4817 -1103.3856 37.32495
  vertex 92.72169 -1103.7396 37.32495
 endloop
endfacet
facet normal -0 0 1
 outer loop
  vertex 95.12672 -1107.9056 37.32495
  vertex 92.72169 -1103.7396 37.32495
  vertex 92.034676 -1104.2206 37.32495
 endloop
endfacet
facet normal -0 0 1
 outer loop
  vertex 96.771736 -1103.3856 37.32495
  vertex 95.96168 -1103.1686 37.32495
  vertex 95.12672 -1107.9056 37.32495
 endloop
endfacet
facet normal 0 0 1
 outer loop
  vertex 95.12672 -1107.9056 37.32495
  vertex 95.96168 -1103.1686 37.32495
  vertex 95.12672 -1103.0956 37.32495
 endloop
endfacet
facet normal -0 0 1
 outer loop
  vertex 95.12672 -1107.9056 37.32495
  vertex 95.12672 -1103.0956 37.32495
  vertex 94.29066 -1103.1686 37.32495
 endloop
endfacet
facet normal -0 0 1
 outer loop
  vertex 98.81068 -1104.8136 37.32495
  vertex 98.21876 -1104.2206 37.32495
  vertex 95.12672 -1107.9056 37.32495
 endloop
endfacet
facet normal 0 0 1
 outer loop
  vertex 95.12672 -1107.9056 37.32495
  vertex 98.21876 -1104.2206 37.32495
  vertex 97.531746 -1103.7396 37.32495
 endloop
endfacet
facet normal 0 0 1
 outer loop
  vertex 95.12672 -1107.9056 37.32495
  vertex 97.531746 -1103.7396 37.32495
  vertex 96.771736 -1103.3856 37.32495
 endloop
endfacet
facet normal -0 0 1
 outer loop
  vertex 99.863655 -1107.0707 37.32495
  vertex 99.646736 -1106.2606 37.32495
  vertex 95.12672 -1107.9056 37.32495
 endloop
endfacet
facet normal 0 0 1
 outer loop
  vertex 95.12672 -1107.9056 37.32495
  vertex 99.646736 -1106.2606 37.32495
  vertex 99.291756 -1105.5006 37.32495
 endloop
endfacet
facet normal 0 0 1
 outer loop
  vertex 95.12672 -1107.9056 37.32495
  vertex 99.291756 -1105.5006 37.32495
  vertex 98.81068 -1104.8136 37.32495
 endloop
endfacet
facet normal 0 0 1
 outer loop
  vertex 99.646736 -1109.5507 37.32495
  vertex 99.863655 -1108.7406 37.32495
  vertex 95.12672 -1107.9056 37.32495
 endloop
endfacet
facet normal 0 0 1
 outer loop
  vertex 95.12672 -1107.9056 37.32495
  vertex 99.863655 -1108.7406 37.32495
  vertex 99.93665 -1107.9056 37.32495
 endloop
endfacet
facet normal 0 0 1
 outer loop
  vertex 95.12672 -1107.9056 37.32495
  vertex 99.93665 -1107.9056 37.32495
  vertex 99.863655 -1107.0707 37.32495
 endloop
endfacet
facet normal 0 0 1
 outer loop
  vertex 98.21876 -1111.5906 37.32495
  vertex 98.81068 -1110.9977 37.32495
  vertex 95.12672 -1107.9056 37.32495
 endloop
endfacet
facet normal 0 0 1
 outer loop
  vertex 95.12672 -1107.9056 37.32495
  vertex 98.81068 -1110.9977 37.32495
  vertex 99.291756 -1110.3107 37.32495
 endloop
endfacet
facet normal 0 0 1
 outer loop
  vertex 95.12672 -1107.9056 37.32495
  vertex 99.291756 -1110.3107 37.32495
  vertex 99.646736 -1109.5507 37.32495
 endloop
endfacet
facet normal 0 0 1
 outer loop
  vertex 95.96168 -1112.6426 37.32495
  vertex 96.771736 -1112.4257 37.32495
  vertex 95.12672 -1107.9056 37.32495
 endloop
endfacet
facet normal 0 0 1
 outer loop
  vertex 95.12672 -1107.9056 37.32495
  vertex 96.771736 -1112.4257 37.32495
  vertex 97.531746 -1112.0717 37.32495
 endloop
endfacet
facet normal 0 0 1
 outer loop
  vertex 95.12672 -1107.9056 37.32495
  vertex 97.531746 -1112.0717 37.32495
  vertex 98.21876 -1111.5906 37.32495
 endloop
endfacet
facet normal 0 0 1
 outer loop
  vertex 93.4817 -1112.4257 37.32495
  vertex 94.29066 -1112.6426 37.32495
  vertex 95.12672 -1107.9056 37.32495
 endloop
endfacet
facet normal 0 -0 1
 outer loop
  vertex 95.12672 -1107.9056 37.32495
  vertex 94.29066 -1112.6426 37.32495
  vertex 95.12672 -1112.7156 37.32495
 endloop
endfacet
facet normal 0 -0 1
 outer loop
  vertex 95.12672 -1107.9056 37.32495
  vertex 95.12672 -1112.7156 37.32495
  vertex 95.96168 -1112.6426 37.32495
 endloop
endfacet
facet normal 0 0 1
 outer loop
  vertex 91.44166 -1110.9977 37.32495
  vertex 92.034676 -1111.5906 37.32495
  vertex 95.12672 -1107.9056 37.32495
 endloop
endfacet
facet normal 0 -0 1
 outer loop
  vertex 95.12672 -1107.9056 37.32495
  vertex 92.034676 -1111.5906 37.32495
  vertex 92.72169 -1112.0717 37.32495
 endloop
endfacet
facet normal 0 -0 1
 outer loop
  vertex 95.12672 -1107.9056 37.32495
  vertex 92.72169 -1112.0717 37.32495
  vertex 93.4817 -1112.4257 37.32495
 endloop
endfacet
facet normal 0 0 1
 outer loop
  vertex 90.389656 -1108.7406 37.32495
  vertex 90.6067 -1109.5507 37.32495
  vertex 95.12672 -1107.9056 37.32495
 endloop
endfacet
facet normal 0 -0 1
 outer loop
  vertex 95.12672 -1107.9056 37.32495
  vertex 90.6067 -1109.5507 37.32495
  vertex 90.9607 -1110.3107 37.32495
 endloop
endfacet
facet normal 0 -0 1
 outer loop
  vertex 95.12672 -1107.9056 37.32495
  vertex 90.9607 -1110.3107 37.32495
  vertex 91.44166 -1110.9977 37.32495
 endloop
endfacet
facet normal 0 -0 1
 outer loop
  vertex 104.20667 -1106.2606 37.32495
  vertex 103.98975 -1107.0707 37.32495
  vertex 108.72669 -1107.9056 37.32495
 endloop
endfacet
facet normal -0 0 1
 outer loop
  vertex 108.72669 -1107.9056 37.32495
  vertex 103.98975 -1107.0707 37.32495
  vertex 103.916756 -1107.9056 37.32495
 endloop
endfacet
facet normal 0 -0 1
 outer loop
  vertex 108.72669 -1107.9056 37.32495
  vertex 103.916756 -1107.9056 37.32495
  vertex 103.98975 -1108.7406 37.32495
 endloop
endfacet
facet normal 0 -0 1
 outer loop
  vertex 105.63465 -1104.2206 37.32495
  vertex 105.041756 -1104.8136 37.32495
  vertex 108.72669 -1107.9056 37.32495
 endloop
endfacet
facet normal -0 0 1
 outer loop
  vertex 108.72669 -1107.9056 37.32495
  vertex 105.041756 -1104.8136 37.32495
  vertex 104.56068 -1105.5006 37.32495
 endloop
endfacet
facet normal -0 0 1
 outer loop
  vertex 108.72669 -1107.9056 37.32495
  vertex 104.56068 -1105.5006 37.32495
  vertex 104.20667 -1106.2606 37.32495
 endloop
endfacet
facet normal 0 -0 1
 outer loop
  vertex 107.890755 -1103.1686 37.32495
  vertex 107.08167 -1103.3856 37.32495
  vertex 108.72669 -1107.9056 37.32495
 endloop
endfacet
facet normal -0 0 1
 outer loop
  vertex 108.72669 -1107.9056 37.32495
  vertex 107.08167 -1103.3856 37.32495
  vertex 106.32166 -1103.7396 37.32495
 endloop
endfacet
facet normal -0 0 1
 outer loop
  vertex 108.72669 -1107.9056 37.32495
  vertex 106.32166 -1103.7396 37.32495
  vertex 105.63465 -1104.2206 37.32495
 endloop
endfacet
facet normal -0 0 1
 outer loop
  vertex 110.37171 -1103.3856 37.32495
  vertex 109.56165 -1103.1686 37.32495
  vertex 108.72669 -1107.9056 37.32495
 endloop
endfacet
facet normal 0 0 1
 outer loop
  vertex 108.72669 -1107.9056 37.32495
  vertex 109.56165 -1103.1686 37.32495
  vertex 108.72669 -1103.0956 37.32495
 endloop
endfacet
facet normal -0 0 1
 outer loop
  vertex 108.72669 -1107.9056 37.32495
  vertex 108.72669 -1103.0956 37.32495
  vertex 107.890755 -1103.1686 37.32495
 endloop
endfacet
facet normal -0 0 1
 outer loop
  vertex 112.41065 -1104.8136 37.32495
  vertex 111.81873 -1104.2206 37.32495
  vertex 108.72669 -1107.9056 37.32495
 endloop
endfacet
facet normal 0 0 1
 outer loop
  vertex 108.72669 -1107.9056 37.32495
  vertex 111.81873 -1104.2206 37.32495
  vertex 111.13172 -1103.7396 37.32495
 endloop
endfacet
facet normal 0 0 1
 outer loop
  vertex 108.72669 -1107.9056 37.32495
  vertex 111.13172 -1103.7396 37.32495
  vertex 110.37171 -1103.3856 37.32495
 endloop
endfacet
facet normal -0 0 1
 outer loop
  vertex 113.46375 -1107.0707 37.32495
  vertex 113.24671 -1106.2606 37.32495
  vertex 108.72669 -1107.9056 37.32495
 endloop
endfacet
facet normal 0 0 1
 outer loop
  vertex 108.72669 -1107.9056 37.32495
  vertex 113.24671 -1106.2606 37.32495
  vertex 112.89173 -1105.5006 37.32495
 endloop
endfacet
facet normal 0 0 1
 outer loop
  vertex 108.72669 -1107.9056 37.32495
  vertex 112.89173 -1105.5006 37.32495
  vertex 112.41065 -1104.8136 37.32495
 endloop
endfacet
facet normal 0 0 1
 outer loop
  vertex 113.24671 -1109.5507 37.32495
  vertex 113.46375 -1108.7406 37.32495
  vertex 108.72669 -1107.9056 37.32495
 endloop
endfacet
facet normal 0 0 1
 outer loop
  vertex 108.72669 -1107.9056 37.32495
  vertex 113.46375 -1108.7406 37.32495
  vertex 113.53675 -1107.9056 37.32495
 endloop
endfacet
facet normal 0 0 1
 outer loop
  vertex 108.72669 -1107.9056 37.32495
  vertex 113.53675 -1107.9056 37.32495
  vertex 113.46375 -1107.0707 37.32495
 endloop
endfacet
facet normal 0 0 1
 outer loop
  vertex 111.81873 -1111.5906 37.32495
  vertex 112.41065 -1110.9977 37.32495
  vertex 108.72669 -1107.9056 37.32495
 endloop
endfacet
facet normal 0 0 1
 outer loop
  vertex 108.72669 -1107.9056 37.32495
  vertex 112.41065 -1110.9977 37.32495
  vertex 112.89173 -1110.3107 37.32495
 endloop
endfacet
facet normal 0 0 1
 outer loop
  vertex 108.72669 -1107.9056 37.32495
  vertex 112.89173 -1110.3107 37.32495
  vertex 113.24671 -1109.5507 37.32495
 endloop
endfacet
facet normal 0 0 1
 outer loop
  vertex 109.56165 -1112.6426 37.32495
  vertex 110.37171 -1112.4257 37.32495
  vertex 108.72669 -1107.9056 37.32495
 endloop
endfacet
facet normal 0 0 1
 outer loop
  vertex 108.72669 -1107.9056 37.32495
  vertex 110.37171 -1112.4257 37.32495
  vertex 111.13172 -1112.0717 37.32495
 endloop
endfacet
facet normal 0 0 1
 outer loop
  vertex 108.72669 -1107.9056 37.32495
  vertex 111.13172 -1112.0717 37.32495
  vertex 111.81873 -1111.5906 37.32495
 endloop
endfacet
facet normal 0 0 1
 outer loop
  vertex 107.08167 -1112.4257 37.32495
  vertex 107.890755 -1112.6426 37.32495
  vertex 108.72669 -1107.9056 37.32495
 endloop
endfacet
facet normal 0 -0 1
 outer loop
  vertex 108.72669 -1107.9056 37.32495
  vertex 107.890755 -1112.6426 37.32495
  vertex 108.72669 -1112.7156 37.32495
 endloop
endfacet
facet normal 0 -0 1
 outer loop
  vertex 108.72669 -1107.9056 37.32495
  vertex 108.72669 -1112.7156 37.32495
  vertex 109.56165 -1112.6426 37.32495
 endloop
endfacet
facet normal 0 0 1
 outer loop
  vertex 105.041756 -1110.9977 37.32495
  vertex 105.63465 -1111.5906 37.32495
  vertex 108.72669 -1107.9056 37.32495
 endloop
endfacet
facet normal 0 -0 1
 outer loop
  vertex 108.72669 -1107.9056 37.32495
  vertex 105.63465 -1111.5906 37.32495
  vertex 106.32166 -1112.0717 37.32495
 endloop
endfacet
facet normal 0 -0 1
 outer loop
  vertex 108.72669 -1107.9056 37.32495
  vertex 106.32166 -1112.0717 37.32495
  vertex 107.08167 -1112.4257 37.32495
 endloop
endfacet
facet normal 0 0 1
 outer loop
  vertex 103.98975 -1108.7406 37.32495
  vertex 104.20667 -1109.5507 37.32495
  vertex 108.72669 -1107.9056 37.32495
 endloop
endfacet
facet normal 0 -0 1
 outer loop
  vertex 108.72669 -1107.9056 37.32495
  vertex 104.20667 -1109.5507 37.32495
  vertex 104.56068 -1110.3107 37.32495
 endloop
endfacet
facet normal 0 -0 1
 outer loop
  vertex 108.72669 -1107.9056 37.32495
  vertex 104.56068 -1110.3107 37.32495
  vertex 105.041756 -1110.9977 37.32495
 endloop
endfacet
facet normal 0 -0 1
 outer loop
  vertex 117.80665 -1106.2606 37.32495
  vertex 117.58973 -1107.0707 37.32495
  vertex 122.32667 -1107.9056 37.32495
 endloop
endfacet
facet normal -0 0 1
 outer loop
  vertex 122.32667 -1107.9056 37.32495
  vertex 117.58973 -1107.0707 37.32495
  vertex 117.51673 -1107.9056 37.32495
 endloop
endfacet
facet normal 0 -0 1
 outer loop
  vertex 122.32667 -1107.9056 37.32495
  vertex 117.51673 -1107.9056 37.32495
  vertex 117.58973 -1108.7406 37.32495
 endloop
endfacet
facet normal 0 -0 1
 outer loop
  vertex 119.23475 -1104.2206 37.32495
  vertex 118.64173 -1104.8136 37.32495
  vertex 122.32667 -1107.9056 37.32495
 endloop
endfacet
facet normal -0 0 1
 outer loop
  vertex 122.32667 -1107.9056 37.32495
  vertex 118.64173 -1104.8136 37.32495
  vertex 118.16065 -1105.5006 37.32495
 endloop
endfacet
facet normal -0 0 1
 outer loop
  vertex 122.32667 -1107.9056 37.32495
  vertex 118.16065 -1105.5006 37.32495
  vertex 117.80665 -1106.2606 37.32495
 endloop
endfacet
facet normal 0 -0 1
 outer loop
  vertex 121.49073 -1103.1686 37.32495
  vertex 120.68165 -1103.3856 37.32495
  vertex 122.32667 -1107.9056 37.32495
 endloop
endfacet
facet normal -0 0 1
 outer loop
  vertex 122.32667 -1107.9056 37.32495
  vertex 120.68165 -1103.3856 37.32495
  vertex 119.92164 -1103.7396 37.32495
 endloop
endfacet
facet normal -0 0 1
 outer loop
  vertex 122.32667 -1107.9056 37.32495
  vertex 119.92164 -1103.7396 37.32495
  vertex 119.23475 -1104.2206 37.32495
 endloop
endfacet
facet normal -0 0 1
 outer loop
  vertex 123.97169 -1103.3856 37.32495
  vertex 123.16175 -1103.1686 37.32495
  vertex 122.32667 -1107.9056 37.32495
 endloop
endfacet
facet normal 0 0 1
 outer loop
  vertex 122.32667 -1107.9056 37.32495
  vertex 123.16175 -1103.1686 37.32495
  vertex 122.32667 -1103.0956 37.32495
 endloop
endfacet
facet normal -0 0 1
 outer loop
  vertex 122.32667 -1107.9056 37.32495
  vertex 122.32667 -1103.0956 37.32495
  vertex 121.49073 -1103.1686 37.32495
 endloop
endfacet
facet normal -0 0 1
 outer loop
  vertex 126.01075 -1104.8136 37.32495
  vertex 125.41871 -1104.2206 37.32495
  vertex 122.32667 -1107.9056 37.32495
 endloop
endfacet
facet normal 0 0 1
 outer loop
  vertex 122.32667 -1107.9056 37.32495
  vertex 125.41871 -1104.2206 37.32495
  vertex 124.7317 -1103.7396 37.32495
 endloop
endfacet
facet normal 0 0 1
 outer loop
  vertex 122.32667 -1107.9056 37.32495
  vertex 124.7317 -1103.7396 37.32495
  vertex 123.97169 -1103.3856 37.32495
 endloop
endfacet
facet normal -0 0 1
 outer loop
  vertex 127.06373 -1107.0707 37.32495
  vertex 126.84669 -1106.2606 37.32495
  vertex 122.32667 -1107.9056 37.32495
 endloop
endfacet
facet normal 0 0 1
 outer loop
  vertex 122.32667 -1107.9056 37.32495
  vertex 126.84669 -1106.2606 37.32495
  vertex 126.49171 -1105.5006 37.32495
 endloop
endfacet
facet normal 0 0 1
 outer loop
  vertex 122.32667 -1107.9056 37.32495
  vertex 126.49171 -1105.5006 37.32495
  vertex 126.01075 -1104.8136 37.32495
 endloop
endfacet
facet normal 0 0 1
 outer loop
  vertex 126.84669 -1109.5507 37.32495
  vertex 127.06373 -1108.7406 37.32495
  vertex 122.32667 -1107.9056 37.32495
 endloop
endfacet
facet normal 0 0 1
 outer loop
  vertex 122.32667 -1107.9056 37.32495
  vertex 127.06373 -1108.7406 37.32495
  vertex 127.13673 -1107.9056 37.32495
 endloop
endfacet
facet normal 0 0 1
 outer loop
  vertex 122.32667 -1107.9056 37.32495
  vertex 127.13673 -1107.9056 37.32495
  vertex 127.06373 -1107.0707 37.32495
 endloop
endfacet
facet normal 0 0 1
 outer loop
  vertex 125.41871 -1111.5906 37.32495
  vertex 126.01075 -1110.9977 37.32495
  vertex 122.32667 -1107.9056 37.32495
 endloop
endfacet
facet normal 0 0 1
 outer loop
  vertex 122.32667 -1107.9056 37.32495
  vertex 126.01075 -1110.9977 37.32495
  vertex 126.49171 -1110.3107 37.32495
 endloop
endfacet
facet normal 0 0 1
 outer loop
  vertex 122.32667 -1107.9056 37.32495
  vertex 126.49171 -1110.3107 37.32495
  vertex 126.84669 -1109.5507 37.32495
 endloop
endfacet
facet normal 0 0 1
 outer loop
  vertex 123.16175 -1112.6426 37.32495
  vertex 123.97169 -1112.4257 37.32495
  vertex 122.32667 -1107.9056 37.32495
 endloop
endfacet
facet normal 0 0 1
 outer loop
  vertex 122.32667 -1107.9056 37.32495
  vertex 123.97169 -1112.4257 37.32495
  vertex 124.7317 -1112.0717 37.32495
 endloop
endfacet
facet normal 0 0 1
 outer loop
  vertex 122.32667 -1107.9056 37.32495
  vertex 124.7317 -1112.0717 37.32495
  vertex 125.41871 -1111.5906 37.32495
 endloop
endfacet
facet normal 0 0 1
 outer loop
  vertex 120.68165 -1112.4257 37.32495
  vertex 121.49073 -1112.6426 37.32495
  vertex 122.32667 -1107.9056 37.32495
 endloop
endfacet
facet normal 0 -0 1
 outer loop
  vertex 122.32667 -1107.9056 37.32495
  vertex 121.49073 -1112.6426 37.32495
  vertex 122.32667 -1112.7156 37.32495
 endloop
endfacet
facet normal 0 -0 1
 outer loop
  vertex 122.32667 -1107.9056 37.32495
  vertex 122.32667 -1112.7156 37.32495
  vertex 123.16175 -1112.6426 37.32495
 endloop
endfacet
facet normal 0 0 1
 outer loop
  vertex 118.64173 -1110.9977 37.32495
  vertex 119.23475 -1111.5906 37.32495
  vertex 122.32667 -1107.9056 37.32495
 endloop
endfacet
facet normal 0 -0 1
 outer loop
  vertex 122.32667 -1107.9056 37.32495
  vertex 119.23475 -1111.5906 37.32495
  vertex 119.92164 -1112.0717 37.32495
 endloop
endfacet
facet normal 0 -0 1
 outer loop
  vertex 122.32667 -1107.9056 37.32495
  vertex 119.92164 -1112.0717 37.32495
  vertex 120.68165 -1112.4257 37.32495
 endloop
endfacet
facet normal 0 0 1
 outer loop
  vertex 117.58973 -1108.7406 37.32495
  vertex 117.80665 -1109.5507 37.32495
  vertex 122.32667 -1107.9056 37.32495
 endloop
endfacet
facet normal 0 -0 1
 outer loop
  vertex 122.32667 -1107.9056 37.32495
  vertex 117.80665 -1109.5507 37.32495
  vertex 118.16065 -1110.3107 37.32495
 endloop
endfacet
facet normal 0 -0 1
 outer loop
  vertex 122.32667 -1107.9056 37.32495
  vertex 118.16065 -1110.3107 37.32495
  vertex 118.64173 -1110.9977 37.32495
 endloop
endfacet
facet normal 0 -0 1
 outer loop
  vertex 131.40675 -1106.2606 37.324955
  vertex 131.18971 -1107.0707 37.324955
  vertex 135.92665 -1107.9056 37.324955
 endloop
endfacet
facet normal -0 0 1
 outer loop
  vertex 135.92665 -1107.9056 37.324955
  vertex 131.18971 -1107.0707 37.324955
  vertex 131.11671 -1107.9056 37.324955
 endloop
endfacet
facet normal 0 -0 1
 outer loop
  vertex 135.92665 -1107.9056 37.324955
  vertex 131.11671 -1107.9056 37.324955
  vertex 131.18971 -1108.7406 37.324955
 endloop
endfacet
facet normal 0 -0 1
 outer loop
  vertex 132.83473 -1104.2206 37.324955
  vertex 132.24171 -1104.8136 37.324955
  vertex 135.92665 -1107.9056 37.324955
 endloop
endfacet
facet normal -0 0 1
 outer loop
  vertex 135.92665 -1107.9056 37.324955
  vertex 132.24171 -1104.8136 37.324955
  vertex 131.76076 -1105.5006 37.324955
 endloop
endfacet
facet normal -0 0 1
 outer loop
  vertex 135.92665 -1107.9056 37.324955
  vertex 131.76076 -1105.5006 37.324955
  vertex 131.40675 -1106.2606 37.324955
 endloop
endfacet
facet normal 0 -0 1
 outer loop
  vertex 135.09071 -1103.1686 37.324955
  vertex 134.28175 -1103.3856 37.324955
  vertex 135.92665 -1107.9056 37.324955
 endloop
endfacet
facet normal -0 0 1
 outer loop
  vertex 135.92665 -1107.9056 37.324955
  vertex 134.28175 -1103.3856 37.324955
  vertex 133.52174 -1103.7396 37.324955
 endloop
endfacet
facet normal -0 0 1
 outer loop
  vertex 135.92665 -1107.9056 37.324955
  vertex 133.52174 -1103.7396 37.324955
  vertex 132.83473 -1104.2206 37.324955
 endloop
endfacet
facet normal -0 0 1
 outer loop
  vertex 137.57167 -1103.3856 37.324955
  vertex 136.76173 -1103.1686 37.324955
  vertex 135.92665 -1107.9056 37.324955
 endloop
endfacet
facet normal 0 0 1
 outer loop
  vertex 135.92665 -1107.9056 37.324955
  vertex 136.76173 -1103.1686 37.324955
  vertex 135.92665 -1103.0956 37.324955
 endloop
endfacet
facet normal -0 0 1
 outer loop
  vertex 135.92665 -1107.9056 37.324955
  vertex 135.92665 -1103.0956 37.324955
  vertex 135.09071 -1103.1686 37.324955
 endloop
endfacet
facet normal -0 0 1
 outer loop
  vertex 139.61073 -1104.8136 37.324955
  vertex 139.01869 -1104.2206 37.324955
  vertex 135.92665 -1107.9056 37.324955
 endloop
endfacet
facet normal 0 0 1
 outer loop
  vertex 135.92665 -1107.9056 37.324955
  vertex 139.01869 -1104.2206 37.324955
  vertex 138.33168 -1103.7396 37.324955
 endloop
endfacet
facet normal 0 0 1
 outer loop
  vertex 135.92665 -1107.9056 37.324955
  vertex 138.33168 -1103.7396 37.324955
  vertex 137.57167 -1103.3856 37.324955
 endloop
endfacet
facet normal -0 0 1
 outer loop
  vertex 140.66371 -1107.0707 37.324955
  vertex 140.44667 -1106.2606 37.324955
  vertex 135.92665 -1107.9056 37.324955
 endloop
endfacet
facet normal 0 0 1
 outer loop
  vertex 135.92665 -1107.9056 37.324955
  vertex 140.44667 -1106.2606 37.324955
  vertex 140.09169 -1105.5006 37.324955
 endloop
endfacet
facet normal 0 0 1
 outer loop
  vertex 135.92665 -1107.9056 37.324955
  vertex 140.09169 -1105.5006 37.324955
  vertex 139.61073 -1104.8136 37.324955
 endloop
endfacet
facet normal 0 0 1
 outer loop
  vertex 140.44667 -1109.5507 37.324955
  vertex 140.66371 -1108.7406 37.324955
  vertex 135.92665 -1107.9056 37.324955
 endloop
endfacet
facet normal 0 0 1
 outer loop
  vertex 135.92665 -1107.9056 37.324955
  vertex 140.66371 -1108.7406 37.324955
  vertex 140.73671 -1107.9056 37.324955
 endloop
endfacet
facet normal 0 0 1
 outer loop
  vertex 135.92665 -1107.9056 37.324955
  vertex 140.73671 -1107.9056 37.324955
  vertex 140.66371 -1107.0707 37.324955
 endloop
endfacet
facet normal 0 0 1
 outer loop
  vertex 139.01869 -1111.5906 37.324955
  vertex 139.61073 -1110.9977 37.324955
  vertex 135.92665 -1107.9056 37.324955
 endloop
endfacet
facet normal 0 0 1
 outer loop
  vertex 135.92665 -1107.9056 37.324955
  vertex 139.61073 -1110.9977 37.324955
  vertex 140.09169 -1110.3107 37.324955
 endloop
endfacet
facet normal 0 0 1
 outer loop
  vertex 135.92665 -1107.9056 37.324955
  vertex 140.09169 -1110.3107 37.324955
  vertex 140.44667 -1109.5507 37.324955
 endloop
endfacet
facet normal 0 0 1
 outer loop
  vertex 136.76173 -1112.6426 37.324955
  vertex 137.57167 -1112.4257 37.324955
  vertex 135.92665 -1107.9056 37.324955
 endloop
endfacet
facet normal 0 0 1
 outer loop
  vertex 135.92665 -1107.9056 37.324955
  vertex 137.57167 -1112.4257 37.324955
  vertex 138.33168 -1112.0717 37.324955
 endloop
endfacet
facet normal 0 0 1
 outer loop
  vertex 135.92665 -1107.9056 37.324955
  vertex 138.33168 -1112.0717 37.324955
  vertex 139.01869 -1111.5906 37.324955
 endloop
endfacet
facet normal 0 0 1
 outer loop
  vertex 134.28175 -1112.4257 37.324955
  vertex 135.09071 -1112.6426 37.324955
  vertex 135.92665 -1107.9056 37.324955
 endloop
endfacet
facet normal 0 -0 1
 outer loop
  vertex 135.92665 -1107.9056 37.324955
  vertex 135.09071 -1112.6426 37.324955
  vertex 135.92665 -1112.7156 37.324955
 endloop
endfacet
facet normal 0 -0 1
 outer loop
  vertex 135.92665 -1107.9056 37.324955
  vertex 135.92665 -1112.7156 37.324955
  vertex 136.76173 -1112.6426 37.324955
 endloop
endfacet
facet normal 0 0 1
 outer loop
  vertex 132.24171 -1110.9977 37.324955
  vertex 132.83473 -1111.5906 37.324955
  vertex 135.92665 -1107.9056 37.324955
 endloop
endfacet
facet normal 0 -0 1
 outer loop
  vertex 135.92665 -1107.9056 37.324955
  vertex 132.83473 -1111.5906 37.324955
  vertex 133.52174 -1112.0717 37.324955
 endloop
endfacet
facet normal 0 -0 1
 outer loop
  vertex 135.92665 -1107.9056 37.324955
  vertex 133.52174 -1112.0717 37.324955
  vertex 134.28175 -1112.4257 37.324955
 endloop
endfacet
facet normal 0 0 1
 outer loop
  vertex 131.18971 -1108.7406 37.324955
  vertex 131.40675 -1109.5507 37.324955
  vertex 135.92665 -1107.9056 37.324955
 endloop
endfacet
facet normal 0 -0 1
 outer loop
  vertex 135.92665 -1107.9056 37.324955
  vertex 131.40675 -1109.5507 37.324955
  vertex 131.76076 -1110.3107 37.324955
 endloop
endfacet
facet normal 0 -0 1
 outer loop
  vertex 135.92665 -1107.9056 37.324955
  vertex 131.76076 -1110.3107 37.324955
  vertex 132.24171 -1110.9977 37.324955
 endloop
endfacet
facet normal 0 -0 1
 outer loop
  vertex 145.00673 -1106.2606 37.324955
  vertex 144.78969 -1107.0707 37.324955
  vertex 149.52669 -1107.9056 37.324955
 endloop
endfacet
facet normal -0 0 1
 outer loop
  vertex 149.52669 -1107.9056 37.324955
  vertex 144.78969 -1107.0707 37.324955
  vertex 144.71669 -1107.9056 37.324955
 endloop
endfacet
facet normal 0 -0 1
 outer loop
  vertex 149.52669 -1107.9056 37.324955
  vertex 144.71669 -1107.9056 37.324955
  vertex 144.78969 -1108.7406 37.324955
 endloop
endfacet
facet normal 0 -0 1
 outer loop
  vertex 146.43471 -1104.2206 37.324955
  vertex 145.84169 -1104.8136 37.324955
  vertex 149.52669 -1107.9056 37.324955
 endloop
endfacet
facet normal -0 0 1
 outer loop
  vertex 149.52669 -1107.9056 37.324955
  vertex 145.84169 -1104.8136 37.324955
  vertex 145.36073 -1105.5006 37.324955
 endloop
endfacet
facet normal -0 0 1
 outer loop
  vertex 149.52669 -1107.9056 37.324955
  vertex 145.36073 -1105.5006 37.324955
  vertex 145.00673 -1106.2606 37.324955
 endloop
endfacet
facet normal 0 -0 1
 outer loop
  vertex 148.69069 -1103.1686 37.324955
  vertex 147.88173 -1103.3856 37.324955
  vertex 149.52669 -1107.9056 37.324955
 endloop
endfacet
facet normal -0 0 1
 outer loop
  vertex 149.52669 -1107.9056 37.324955
  vertex 147.88173 -1103.3856 37.324955
  vertex 147.12172 -1103.7396 37.324955
 endloop
endfacet
facet normal -0 0 1
 outer loop
  vertex 149.52669 -1107.9056 37.324955
  vertex 147.12172 -1103.7396 37.324955
  vertex 146.43471 -1104.2206 37.324955
 endloop
endfacet
facet normal -0 0 1
 outer loop
  vertex 151.1717 -1103.3856 37.324955
  vertex 150.36171 -1103.1686 37.324955
  vertex 149.52669 -1107.9056 37.324955
 endloop
endfacet
facet normal 0 0 1
 outer loop
  vertex 149.52669 -1107.9056 37.324955
  vertex 150.36171 -1103.1686 37.324955
  vertex 149.52669 -1103.0956 37.324955
 endloop
endfacet
facet normal -0 0 1
 outer loop
  vertex 149.52669 -1107.9056 37.324955
  vertex 149.52669 -1103.0956 37.324955
  vertex 148.69069 -1103.1686 37.324955
 endloop
endfacet
facet normal -0 0 1
 outer loop
  vertex 153.21071 -1104.8136 37.324955
  vertex 152.61873 -1104.2206 37.324955
  vertex 149.52669 -1107.9056 37.324955
 endloop
endfacet
facet normal 0 0 1
 outer loop
  vertex 149.52669 -1107.9056 37.324955
  vertex 152.61873 -1104.2206 37.324955
  vertex 151.93172 -1103.7396 37.324955
 endloop
endfacet
facet normal 0 0 1
 outer loop
  vertex 149.52669 -1107.9056 37.324955
  vertex 151.93172 -1103.7396 37.324955
  vertex 151.1717 -1103.3856 37.324955
 endloop
endfacet
facet normal -0 0 1
 outer loop
  vertex 154.26369 -1107.0707 37.324955
  vertex 154.0467 -1106.2606 37.324955
  vertex 149.52669 -1107.9056 37.324955
 endloop
endfacet
facet normal 0 0 1
 outer loop
  vertex 149.52669 -1107.9056 37.324955
  vertex 154.0467 -1106.2606 37.324955
  vertex 153.69173 -1105.5006 37.324955
 endloop
endfacet
facet normal 0 0 1
 outer loop
  vertex 149.52669 -1107.9056 37.324955
  vertex 153.69173 -1105.5006 37.324955
  vertex 153.21071 -1104.8136 37.324955
 endloop
endfacet
facet normal 0 0 1
 outer loop
  vertex 154.0467 -1109.5507 37.324955
  vertex 154.26369 -1108.7406 37.324955
  vertex 149.52669 -1107.9056 37.324955
 endloop
endfacet
facet normal 0 0 1
 outer loop
  vertex 149.52669 -1107.9056 37.324955
  vertex 154.26369 -1108.7406 37.324955
  vertex 154.33669 -1107.9056 37.324955
 endloop
endfacet
facet normal 0 0 1
 outer loop
  vertex 149.52669 -1107.9056 37.324955
  vertex 154.33669 -1107.9056 37.324955
  vertex 154.26369 -1107.0707 37.324955
 endloop
endfacet
facet normal 0 0 1
 outer loop
  vertex 152.61873 -1111.5906 37.324955
  vertex 153.21071 -1110.9977 37.324955
  vertex 149.52669 -1107.9056 37.324955
 endloop
endfacet
facet normal 0 0 1
 outer loop
  vertex 149.52669 -1107.9056 37.324955
  vertex 153.21071 -1110.9977 37.324955
  vertex 153.69173 -1110.3107 37.324955
 endloop
endfacet
facet normal 0 0 1
 outer loop
  vertex 149.52669 -1107.9056 37.324955
  vertex 153.69173 -1110.3107 37.324955
  vertex 154.0467 -1109.5507 37.324955
 endloop
endfacet
facet normal 0 0 1
 outer loop
  vertex 150.36171 -1112.6426 37.324955
  vertex 151.1717 -1112.4257 37.324955
  vertex 149.52669 -1107.9056 37.324955
 endloop
endfacet
facet normal 0 0 1
 outer loop
  vertex 149.52669 -1107.9056 37.324955
  vertex 151.1717 -1112.4257 37.324955
  vertex 151.93172 -1112.0717 37.324955
 endloop
endfacet
facet normal 0 0 1
 outer loop
  vertex 149.52669 -1107.9056 37.324955
  vertex 151.93172 -1112.0717 37.324955
  vertex 152.61873 -1111.5906 37.324955
 endloop
endfacet
facet normal 0 0 1
 outer loop
  vertex 147.88173 -1112.4257 37.324955
  vertex 148.69069 -1112.6426 37.324955
  vertex 149.52669 -1107.9056 37.324955
 endloop
endfacet
facet normal 0 -0 1
 outer loop
  vertex 149.52669 -1107.9056 37.324955
  vertex 148.69069 -1112.6426 37.324955
  vertex 149.52669 -1112.7156 37.324955
 endloop
endfacet
facet normal 0 -0 1
 outer loop
  vertex 149.52669 -1107.9056 37.324955
  vertex 149.52669 -1112.7156 37.324955
  vertex 150.36171 -1112.6426 37.324955
 endloop
endfacet
facet normal 0 0 1
 outer loop
  vertex 145.84169 -1110.9977 37.324955
  vertex 146.43471 -1111.5906 37.324955
  vertex 149.52669 -1107.9056 37.324955
 endloop
endfacet
facet normal 0 -0 1
 outer loop
  vertex 149.52669 -1107.9056 37.324955
  vertex 146.43471 -1111.5906 37.324955
  vertex 147.12172 -1112.0717 37.324955
 endloop
endfacet
facet normal 0 -0 1
 outer loop
  vertex 149.52669 -1107.9056 37.324955
  vertex 147.12172 -1112.0717 37.324955
  vertex 147.88173 -1112.4257 37.324955
 endloop
endfacet
facet normal 0 0 1
 outer loop
  vertex 144.78969 -1108.7406 37.324955
  vertex 145.00673 -1109.5507 37.324955
  vertex 149.52669 -1107.9056 37.324955
 endloop
endfacet
facet normal 0 -0 1
 outer loop
  vertex 149.52669 -1107.9056 37.324955
  vertex 145.00673 -1109.5507 37.324955
  vertex 145.36073 -1110.3107 37.324955
 endloop
endfacet
facet normal 0 -0 1
 outer loop
  vertex 149.52669 -1107.9056 37.324955
  vertex 145.36073 -1110.3107 37.324955
  vertex 145.84169 -1110.9977 37.324955
 endloop
endfacet
facet normal 0 -0 1
 outer loop
  vertex 131.40675 -1092.7606 37.324955
  vertex 131.18971 -1093.5707 37.324955
  vertex 135.92665 -1094.4056 37.324955
 endloop
endfacet
facet normal -0 0 1
 outer loop
  vertex 135.92665 -1094.4056 37.324955
  vertex 131.18971 -1093.5707 37.324955
  vertex 131.11671 -1094.4056 37.324955
 endloop
endfacet
facet normal 0 -0 1
 outer loop
  vertex 135.92665 -1094.4056 37.324955
  vertex 131.11671 -1094.4056 37.324955
  vertex 131.18971 -1095.2406 37.324955
 endloop
endfacet
facet normal 0 -0 1
 outer loop
  vertex 132.83473 -1090.7206 37.324955
  vertex 132.24171 -1091.3136 37.324955
  vertex 135.92665 -1094.4056 37.324955
 endloop
endfacet
facet normal -0 0 1
 outer loop
  vertex 135.92665 -1094.4056 37.324955
  vertex 132.24171 -1091.3136 37.324955
  vertex 131.76076 -1092.0006 37.324955
 endloop
endfacet
facet normal -0 0 1
 outer loop
  vertex 135.92665 -1094.4056 37.324955
  vertex 131.76076 -1092.0006 37.324955
  vertex 131.40675 -1092.7606 37.324955
 endloop
endfacet
facet normal 0 -0 1
 outer loop
  vertex 135.09071 -1089.6686 37.324955
  vertex 134.28175 -1089.8856 37.324955
  vertex 135.92665 -1094.4056 37.324955
 endloop
endfacet
facet normal -0 0 1
 outer loop
  vertex 135.92665 -1094.4056 37.324955
  vertex 134.28175 -1089.8856 37.324955
  vertex 133.52174 -1090.2396 37.324955
 endloop
endfacet
facet normal -0 0 1
 outer loop
  vertex 135.92665 -1094.4056 37.324955
  vertex 133.52174 -1090.2396 37.324955
  vertex 132.83473 -1090.7206 37.324955
 endloop
endfacet
facet normal -0 0 1
 outer loop
  vertex 137.57167 -1089.8856 37.324955
  vertex 136.76173 -1089.6686 37.324955
  vertex 135.92665 -1094.4056 37.324955
 endloop
endfacet
facet normal 0 0 1
 outer loop
  vertex 135.92665 -1094.4056 37.324955
  vertex 136.76173 -1089.6686 37.324955
  vertex 135.92665 -1089.5956 37.324955
 endloop
endfacet
facet normal -0 0 1
 outer loop
  vertex 135.92665 -1094.4056 37.324955
  vertex 135.92665 -1089.5956 37.324955
  vertex 135.09071 -1089.6686 37.324955
 endloop
endfacet
facet normal -0 0 1
 outer loop
  vertex 139.61073 -1091.3136 37.324955
  vertex 139.01869 -1090.7206 37.324955
  vertex 135.92665 -1094.4056 37.324955
 endloop
endfacet
facet normal 0 0 1
 outer loop
  vertex 135.92665 -1094.4056 37.324955
  vertex 139.01869 -1090.7206 37.324955
  vertex 138.33168 -1090.2396 37.324955
 endloop
endfacet
facet normal 0 0 1
 outer loop
  vertex 135.92665 -1094.4056 37.324955
  vertex 138.33168 -1090.2396 37.324955
  vertex 137.57167 -1089.8856 37.324955
 endloop
endfacet
facet normal -0 0 1
 outer loop
  vertex 140.66371 -1093.5707 37.324955
  vertex 140.44667 -1092.7606 37.324955
  vertex 135.92665 -1094.4056 37.324955
 endloop
endfacet
facet normal 0 0 1
 outer loop
  vertex 135.92665 -1094.4056 37.324955
  vertex 140.44667 -1092.7606 37.324955
  vertex 140.09169 -1092.0006 37.324955
 endloop
endfacet
facet normal 0 0 1
 outer loop
  vertex 135.92665 -1094.4056 37.324955
  vertex 140.09169 -1092.0006 37.324955
  vertex 139.61073 -1091.3136 37.324955
 endloop
endfacet
facet normal 0 0 1
 outer loop
  vertex 140.44667 -1096.0507 37.324955
  vertex 140.66371 -1095.2406 37.324955
  vertex 135.92665 -1094.4056 37.324955
 endloop
endfacet
facet normal 0 0 1
 outer loop
  vertex 135.92665 -1094.4056 37.324955
  vertex 140.66371 -1095.2406 37.324955
  vertex 140.73671 -1094.4056 37.324955
 endloop
endfacet
facet normal 0 0 1
 outer loop
  vertex 135.92665 -1094.4056 37.324955
  vertex 140.73671 -1094.4056 37.324955
  vertex 140.66371 -1093.5707 37.324955
 endloop
endfacet
facet normal 0 0 1
 outer loop
  vertex 139.01869 -1098.0906 37.324955
  vertex 139.61073 -1097.4977 37.324955
  vertex 135.92665 -1094.4056 37.324955
 endloop
endfacet
facet normal 0 0 1
 outer loop
  vertex 135.92665 -1094.4056 37.324955
  vertex 139.61073 -1097.4977 37.324955
  vertex 140.09169 -1096.8107 37.324955
 endloop
endfacet
facet normal 0 0 1
 outer loop
  vertex 135.92665 -1094.4056 37.324955
  vertex 140.09169 -1096.8107 37.324955
  vertex 140.44667 -1096.0507 37.324955
 endloop
endfacet
facet normal 0 0 1
 outer loop
  vertex 136.76173 -1099.1426 37.324955
  vertex 137.57167 -1098.9257 37.324955
  vertex 135.92665 -1094.4056 37.324955
 endloop
endfacet
facet normal 0 0 1
 outer loop
  vertex 135.92665 -1094.4056 37.324955
  vertex 137.57167 -1098.9257 37.324955
  vertex 138.33168 -1098.5717 37.324955
 endloop
endfacet
facet normal 0 0 1
 outer loop
  vertex 135.92665 -1094.4056 37.324955
  vertex 138.33168 -1098.5717 37.324955
  vertex 139.01869 -1098.0906 37.324955
 endloop
endfacet
facet normal 0 0 1
 outer loop
  vertex 134.28175 -1098.9257 37.324955
  vertex 135.09071 -1099.1426 37.324955
  vertex 135.92665 -1094.4056 37.324955
 endloop
endfacet
facet normal 0 -0 1
 outer loop
  vertex 135.92665 -1094.4056 37.324955
  vertex 135.09071 -1099.1426 37.324955
  vertex 135.92665 -1099.2156 37.324955
 endloop
endfacet
facet normal 0 -0 1
 outer loop
  vertex 135.92665 -1094.4056 37.324955
  vertex 135.92665 -1099.2156 37.324955
  vertex 136.76173 -1099.1426 37.324955
 endloop
endfacet
facet normal 0 0 1
 outer loop
  vertex 132.24171 -1097.4977 37.324955
  vertex 132.83473 -1098.0906 37.324955
  vertex 135.92665 -1094.4056 37.324955
 endloop
endfacet
facet normal 0 -0 1
 outer loop
  vertex 135.92665 -1094.4056 37.324955
  vertex 132.83473 -1098.0906 37.324955
  vertex 133.52174 -1098.5717 37.324955
 endloop
endfacet
facet normal 0 -0 1
 outer loop
  vertex 135.92665 -1094.4056 37.324955
  vertex 133.52174 -1098.5717 37.324955
  vertex 134.28175 -1098.9257 37.324955
 endloop
endfacet
facet normal 0 0 1
 outer loop
  vertex 131.18971 -1095.2406 37.324955
  vertex 131.40675 -1096.0507 37.324955
  vertex 135.92665 -1094.4056 37.324955
 endloop
endfacet
facet normal 0 -0 1
 outer loop
  vertex 135.92665 -1094.4056 37.324955
  vertex 131.40675 -1096.0507 37.324955
  vertex 131.76076 -1096.8107 37.324955
 endloop
endfacet
facet normal 0 -0 1
 outer loop
  vertex 135.92665 -1094.4056 37.324955
  vertex 131.76076 -1096.8107 37.324955
  vertex 132.24171 -1097.4977 37.324955
 endloop
endfacet
facet normal 0 -0 1
 outer loop
  vertex 117.806656 -1092.7606 37.32495
  vertex 117.58974 -1093.5707 37.32495
  vertex 122.326675 -1094.4056 37.32495
 endloop
endfacet
facet normal -0 0 1
 outer loop
  vertex 122.326675 -1094.4056 37.32495
  vertex 117.58974 -1093.5707 37.32495
  vertex 117.51674 -1094.4056 37.32495
 endloop
endfacet
facet normal 0 -0 1
 outer loop
  vertex 122.326675 -1094.4056 37.32495
  vertex 117.51674 -1094.4056 37.32495
  vertex 117.58974 -1095.2406 37.32495
 endloop
endfacet
facet normal 0 -0 1
 outer loop
  vertex 119.23476 -1090.7206 37.32495
  vertex 118.64174 -1091.3136 37.32495
  vertex 122.326675 -1094.4056 37.32495
 endloop
endfacet
facet normal -0 0 1
 outer loop
  vertex 122.326675 -1094.4056 37.32495
  vertex 118.64174 -1091.3136 37.32495
  vertex 118.16066 -1092.0006 37.32495
 endloop
endfacet
facet normal -0 0 1
 outer loop
  vertex 122.326675 -1094.4056 37.32495
  vertex 118.16066 -1092.0006 37.32495
  vertex 117.806656 -1092.7606 37.32495
 endloop
endfacet
facet normal 0 -0 1
 outer loop
  vertex 121.49074 -1089.6686 37.32495
  vertex 120.681656 -1089.8856 37.32495
  vertex 122.326675 -1094.4056 37.32495
 endloop
endfacet
facet normal -0 0 1
 outer loop
  vertex 122.326675 -1094.4056 37.32495
  vertex 120.681656 -1089.8856 37.32495
  vertex 119.921646 -1090.2396 37.32495
 endloop
endfacet
facet normal -0 0 1
 outer loop
  vertex 122.326675 -1094.4056 37.32495
  vertex 119.921646 -1090.2396 37.32495
  vertex 119.23476 -1090.7206 37.32495
 endloop
endfacet
facet normal -0 0 1
 outer loop
  vertex 123.971695 -1089.8856 37.32495
  vertex 123.16176 -1089.6686 37.32495
  vertex 122.326675 -1094.4056 37.32495
 endloop
endfacet
facet normal 0 0 1
 outer loop
  vertex 122.326675 -1094.4056 37.32495
  vertex 123.16176 -1089.6686 37.32495
  vertex 122.326675 -1089.5956 37.32495
 endloop
endfacet
facet normal -0 0 1
 outer loop
  vertex 122.326675 -1094.4056 37.32495
  vertex 122.326675 -1089.5956 37.32495
  vertex 121.49074 -1089.6686 37.32495
 endloop
endfacet
facet normal -0 0 1
 outer loop
  vertex 126.01076 -1091.3136 37.32495
  vertex 125.41872 -1090.7206 37.32495
  vertex 122.326675 -1094.4056 37.32495
 endloop
endfacet
facet normal 0 0 1
 outer loop
  vertex 122.326675 -1094.4056 37.32495
  vertex 125.41872 -1090.7206 37.32495
  vertex 124.731705 -1090.2396 37.32495
 endloop
endfacet
facet normal 0 0 1
 outer loop
  vertex 122.326675 -1094.4056 37.32495
  vertex 124.731705 -1090.2396 37.32495
  vertex 123.971695 -1089.8856 37.32495
 endloop
endfacet
facet normal -0 0 1
 outer loop
  vertex 127.063736 -1093.5707 37.32495
  vertex 126.846695 -1092.7606 37.32495
  vertex 122.326675 -1094.4056 37.32495
 endloop
endfacet
facet normal 0 0 1
 outer loop
  vertex 122.326675 -1094.4056 37.32495
  vertex 126.846695 -1092.7606 37.32495
  vertex 126.491714 -1092.0006 37.32495
 endloop
endfacet
facet normal 0 0 1
 outer loop
  vertex 122.326675 -1094.4056 37.32495
  vertex 126.491714 -1092.0006 37.32495
  vertex 126.01076 -1091.3136 37.32495
 endloop
endfacet
facet normal 0 0 1
 outer loop
  vertex 126.846695 -1096.0507 37.32495
  vertex 127.063736 -1095.2406 37.32495
  vertex 122.326675 -1094.4056 37.32495
 endloop
endfacet
facet normal 0 0 1
 outer loop
  vertex 122.326675 -1094.4056 37.32495
  vertex 127.063736 -1095.2406 37.32495
  vertex 127.136734 -1094.4056 37.32495
 endloop
endfacet
facet normal 0 0 1
 outer loop
  vertex 122.326675 -1094.4056 37.32495
  vertex 127.136734 -1094.4056 37.32495
  vertex 127.063736 -1093.5707 37.32495
 endloop
endfacet
facet normal 0 0 1
 outer loop
  vertex 125.41871 -1098.0906 37.32495
  vertex 126.01075 -1097.4977 37.32495
  vertex 122.326675 -1094.4056 37.32495
 endloop
endfacet
facet normal 0 0 1
 outer loop
  vertex 122.326675 -1094.4056 37.32495
  vertex 126.01075 -1097.4977 37.32495
  vertex 126.491714 -1096.8107 37.32495
 endloop
endfacet
facet normal 0 0 1
 outer loop
  vertex 122.326675 -1094.4056 37.32495
  vertex 126.491714 -1096.8107 37.32495
  vertex 126.846695 -1096.0507 37.32495
 endloop
endfacet
facet normal 0 0 1
 outer loop
  vertex 123.16175 -1099.1426 37.32495
  vertex 123.97169 -1098.9257 37.32495
  vertex 122.326675 -1094.4056 37.32495
 endloop
endfacet
facet normal 0 0 1
 outer loop
  vertex 122.326675 -1094.4056 37.32495
  vertex 123.97169 -1098.9257 37.32495
  vertex 124.7317 -1098.5717 37.32495
 endloop
endfacet
facet normal 0 0 1
 outer loop
  vertex 122.326675 -1094.4056 37.32495
  vertex 124.7317 -1098.5717 37.32495
  vertex 125.41871 -1098.0906 37.32495
 endloop
endfacet
facet normal 0 0 1
 outer loop
  vertex 120.68165 -1098.9257 37.32495
  vertex 121.49073 -1099.1426 37.32495
  vertex 122.326675 -1094.4056 37.32495
 endloop
endfacet
facet normal 0 -0 1
 outer loop
  vertex 122.326675 -1094.4056 37.32495
  vertex 121.49073 -1099.1426 37.32495
  vertex 122.32667 -1099.2156 37.32495
 endloop
endfacet
facet normal 0 -0 1
 outer loop
  vertex 122.326675 -1094.4056 37.32495
  vertex 122.32667 -1099.2156 37.32495
  vertex 123.16175 -1099.1426 37.32495
 endloop
endfacet
facet normal 0 0 1
 outer loop
  vertex 118.64173 -1097.4977 37.32495
  vertex 119.23475 -1098.0906 37.32495
  vertex 122.326675 -1094.4056 37.32495
 endloop
endfacet
facet normal 0 -0 1
 outer loop
  vertex 122.326675 -1094.4056 37.32495
  vertex 119.23475 -1098.0906 37.32495
  vertex 119.92164 -1098.5717 37.32495
 endloop
endfacet
facet normal 0 -0 1
 outer loop
  vertex 122.326675 -1094.4056 37.32495
  vertex 119.92164 -1098.5717 37.32495
  vertex 120.68165 -1098.9257 37.32495
 endloop
endfacet
facet normal 0 0 1
 outer loop
  vertex 117.58974 -1095.2406 37.32495
  vertex 117.806656 -1096.0507 37.32495
  vertex 122.326675 -1094.4056 37.32495
 endloop
endfacet
facet normal 0 -0 1
 outer loop
  vertex 122.326675 -1094.4056 37.32495
  vertex 117.806656 -1096.0507 37.32495
  vertex 118.16066 -1096.8107 37.32495
 endloop
endfacet
facet normal 0 -0 1
 outer loop
  vertex 122.326675 -1094.4056 37.32495
  vertex 118.16066 -1096.8107 37.32495
  vertex 118.64173 -1097.4977 37.32495
 endloop
endfacet
facet normal 0 -0 1
 outer loop
  vertex 104.20668 -1092.7606 37.32495
  vertex 103.98976 -1093.5707 37.32495
  vertex 108.7267 -1094.4056 37.32495
 endloop
endfacet
facet normal -0 0 1
 outer loop
  vertex 108.7267 -1094.4056 37.32495
  vertex 103.98976 -1093.5707 37.32495
  vertex 103.91676 -1094.4056 37.32495
 endloop
endfacet
facet normal 0 -0 1
 outer loop
  vertex 108.7267 -1094.4056 37.32495
  vertex 103.91676 -1094.4056 37.32495
  vertex 103.98976 -1095.2406 37.32495
 endloop
endfacet
facet normal 0 -0 1
 outer loop
  vertex 105.63466 -1090.7206 37.32495
  vertex 105.04176 -1091.3136 37.32495
  vertex 108.7267 -1094.4056 37.32495
 endloop
endfacet
facet normal -0 0 1
 outer loop
  vertex 108.7267 -1094.4056 37.32495
  vertex 105.04176 -1091.3136 37.32495
  vertex 104.560684 -1092.0006 37.32495
 endloop
endfacet
facet normal -0 0 1
 outer loop
  vertex 108.7267 -1094.4056 37.32495
  vertex 104.560684 -1092.0006 37.32495
  vertex 104.20668 -1092.7606 37.32495
 endloop
endfacet
facet normal 0 -0 1
 outer loop
  vertex 107.89076 -1089.6686 37.32495
  vertex 107.08168 -1089.8856 37.32495
  vertex 108.7267 -1094.4056 37.32495
 endloop
endfacet
facet normal -0 0 1
 outer loop
  vertex 108.7267 -1094.4056 37.32495
  vertex 107.08168 -1089.8856 37.32495
  vertex 106.32167 -1090.2396 37.32495
 endloop
endfacet
facet normal -0 0 1
 outer loop
  vertex 108.7267 -1094.4056 37.32495
  vertex 106.32167 -1090.2396 37.32495
  vertex 105.63466 -1090.7206 37.32495
 endloop
endfacet
facet normal -0 0 1
 outer loop
  vertex 110.37172 -1089.8856 37.32495
  vertex 109.56166 -1089.6686 37.32495
  vertex 108.7267 -1094.4056 37.32495
 endloop
endfacet
facet normal 0 0 1
 outer loop
  vertex 108.7267 -1094.4056 37.32495
  vertex 109.56166 -1089.6686 37.32495
  vertex 108.7267 -1089.5956 37.32495
 endloop
endfacet
facet normal -0 0 1
 outer loop
  vertex 108.7267 -1094.4056 37.32495
  vertex 108.7267 -1089.5956 37.32495
  vertex 107.89076 -1089.6686 37.32495
 endloop
endfacet
facet normal -0 0 1
 outer loop
  vertex 112.41066 -1091.3136 37.32495
  vertex 111.81874 -1090.7206 37.32495
  vertex 108.7267 -1094.4056 37.32495
 endloop
endfacet
facet normal 0 0 1
 outer loop
  vertex 108.7267 -1094.4056 37.32495
  vertex 111.81874 -1090.7206 37.32495
  vertex 111.13173 -1090.2396 37.32495
 endloop
endfacet
facet normal 0 0 1
 outer loop
  vertex 108.7267 -1094.4056 37.32495
  vertex 111.13173 -1090.2396 37.32495
  vertex 110.37172 -1089.8856 37.32495
 endloop
endfacet
facet normal -0 0 1
 outer loop
  vertex 113.46376 -1093.5707 37.32495
  vertex 113.24672 -1092.7606 37.32495
  vertex 108.7267 -1094.4056 37.32495
 endloop
endfacet
facet normal 0 0 1
 outer loop
  vertex 108.7267 -1094.4056 37.32495
  vertex 113.24672 -1092.7606 37.32495
  vertex 112.89174 -1092.0006 37.32495
 endloop
endfacet
facet normal 0 0 1
 outer loop
  vertex 108.7267 -1094.4056 37.32495
  vertex 112.89174 -1092.0006 37.32495
  vertex 112.41066 -1091.3136 37.32495
 endloop
endfacet
facet normal 0 0 1
 outer loop
  vertex 113.24672 -1096.0507 37.32495
  vertex 113.46376 -1095.2406 37.32495
  vertex 108.7267 -1094.4056 37.32495
 endloop
endfacet
facet normal 0 0 1
 outer loop
  vertex 108.7267 -1094.4056 37.32495
  vertex 113.46376 -1095.2406 37.32495
  vertex 113.53676 -1094.4056 37.32495
 endloop
endfacet
facet normal 0 0 1
 outer loop
  vertex 108.7267 -1094.4056 37.32495
  vertex 113.53676 -1094.4056 37.32495
  vertex 113.46376 -1093.5707 37.32495
 endloop
endfacet
facet normal 0 0 1
 outer loop
  vertex 111.81873 -1098.0906 37.32495
  vertex 112.41065 -1097.4977 37.32495
  vertex 108.7267 -1094.4056 37.32495
 endloop
endfacet
facet normal 0 0 1
 outer loop
  vertex 108.7267 -1094.4056 37.32495
  vertex 112.41065 -1097.4977 37.32495
  vertex 112.89174 -1096.8107 37.32495
 endloop
endfacet
facet normal 0 0 1
 outer loop
  vertex 108.7267 -1094.4056 37.32495
  vertex 112.89174 -1096.8107 37.32495
  vertex 113.24672 -1096.0507 37.32495
 endloop
endfacet
facet normal 0 0 1
 outer loop
  vertex 109.56165 -1099.1426 37.32495
  vertex 110.37171 -1098.9257 37.32495
  vertex 108.7267 -1094.4056 37.32495
 endloop
endfacet
facet normal 0 0 1
 outer loop
  vertex 108.7267 -1094.4056 37.32495
  vertex 110.37171 -1098.9257 37.32495
  vertex 111.13172 -1098.5717 37.32495
 endloop
endfacet
facet normal 0 0 1
 outer loop
  vertex 108.7267 -1094.4056 37.32495
  vertex 111.13172 -1098.5717 37.32495
  vertex 111.81873 -1098.0906 37.32495
 endloop
endfacet
facet normal 0 0 1
 outer loop
  vertex 107.08167 -1098.9257 37.32495
  vertex 107.890755 -1099.1426 37.32495
  vertex 108.7267 -1094.4056 37.32495
 endloop
endfacet
facet normal 0 -0 1
 outer loop
  vertex 108.7267 -1094.4056 37.32495
  vertex 107.890755 -1099.1426 37.32495
  vertex 108.72669 -1099.2156 37.32495
 endloop
endfacet
facet normal 0 -0 1
 outer loop
  vertex 108.7267 -1094.4056 37.32495
  vertex 108.72669 -1099.2156 37.32495
  vertex 109.56165 -1099.1426 37.32495
 endloop
endfacet
facet normal 0 0 1
 outer loop
  vertex 105.041756 -1097.4977 37.32495
  vertex 105.63465 -1098.0906 37.32495
  vertex 108.7267 -1094.4056 37.32495
 endloop
endfacet
facet normal 0 -0 1
 outer loop
  vertex 108.7267 -1094.4056 37.32495
  vertex 105.63465 -1098.0906 37.32495
  vertex 106.32166 -1098.5717 37.32495
 endloop
endfacet
facet normal 0 -0 1
 outer loop
  vertex 108.7267 -1094.4056 37.32495
  vertex 106.32166 -1098.5717 37.32495
  vertex 107.08167 -1098.9257 37.32495
 endloop
endfacet
facet normal 0 0 1
 outer loop
  vertex 103.98976 -1095.2406 37.32495
  vertex 104.20668 -1096.0507 37.32495
  vertex 108.7267 -1094.4056 37.32495
 endloop
endfacet
facet normal 0 -0 1
 outer loop
  vertex 108.7267 -1094.4056 37.32495
  vertex 104.20668 -1096.0507 37.32495
  vertex 104.560684 -1096.8107 37.32495
 endloop
endfacet
facet normal 0 -0 1
 outer loop
  vertex 108.7267 -1094.4056 37.32495
  vertex 104.560684 -1096.8107 37.32495
  vertex 105.041756 -1097.4977 37.32495
 endloop
endfacet
facet normal 0 -0 1
 outer loop
  vertex 77.00673 -1092.7606 37.32495
  vertex 76.78969 -1093.5707 37.32495
  vertex 81.52675 -1094.4056 37.32495
 endloop
endfacet
facet normal -0 0 1
 outer loop
  vertex 81.52675 -1094.4056 37.32495
  vertex 76.78969 -1093.5707 37.32495
  vertex 76.71669 -1094.4056 37.32495
 endloop
endfacet
facet normal 0 -0 1
 outer loop
  vertex 81.52675 -1094.4056 37.32495
  vertex 76.71669 -1094.4056 37.32495
  vertex 76.78969 -1095.2406 37.32495
 endloop
endfacet
facet normal 0 -0 1
 outer loop
  vertex 78.43471 -1090.7206 37.32495
  vertex 77.84169 -1091.3136 37.32495
  vertex 81.52675 -1094.4056 37.32495
 endloop
endfacet
facet normal -0 0 1
 outer loop
  vertex 81.52675 -1094.4056 37.32495
  vertex 77.84169 -1091.3136 37.32495
  vertex 77.36073 -1092.0006 37.32495
 endloop
endfacet
facet normal -0 0 1
 outer loop
  vertex 81.52675 -1094.4056 37.32495
  vertex 77.36073 -1092.0006 37.32495
  vertex 77.00673 -1092.7606 37.32495
 endloop
endfacet
facet normal 0 -0 1
 outer loop
  vertex 80.69069 -1089.6686 37.32495
  vertex 79.88173 -1089.8856 37.32495
  vertex 81.52675 -1094.4056 37.32495
 endloop
endfacet
facet normal -0 0 1
 outer loop
  vertex 81.52675 -1094.4056 37.32495
  vertex 79.88173 -1089.8856 37.32495
  vertex 79.12172 -1090.2396 37.32495
 endloop
endfacet
facet normal -0 0 1
 outer loop
  vertex 81.52675 -1094.4056 37.32495
  vertex 79.12172 -1090.2396 37.32495
  vertex 78.43471 -1090.7206 37.32495
 endloop
endfacet
facet normal -0 0 1
 outer loop
  vertex 83.171646 -1089.8856 37.32495
  vertex 82.36171 -1089.6686 37.32495
  vertex 81.52675 -1094.4056 37.32495
 endloop
endfacet
facet normal 0 0 1
 outer loop
  vertex 81.52675 -1094.4056 37.32495
  vertex 82.36171 -1089.6686 37.32495
  vertex 81.52675 -1089.5956 37.32495
 endloop
endfacet
facet normal -0 0 1
 outer loop
  vertex 81.52675 -1094.4056 37.32495
  vertex 81.52675 -1089.5956 37.32495
  vertex 80.69069 -1089.6686 37.32495
 endloop
endfacet
facet normal -0 0 1
 outer loop
  vertex 85.21071 -1091.3136 37.32495
  vertex 84.61867 -1090.7206 37.32495
  vertex 81.52675 -1094.4056 37.32495
 endloop
endfacet
facet normal 0 0 1
 outer loop
  vertex 81.52675 -1094.4056 37.32495
  vertex 84.61867 -1090.7206 37.32495
  vertex 83.931656 -1090.2396 37.32495
 endloop
endfacet
facet normal 0 0 1
 outer loop
  vertex 81.52675 -1094.4056 37.32495
  vertex 83.931656 -1090.2396 37.32495
  vertex 83.171646 -1089.8856 37.32495
 endloop
endfacet
facet normal -0 0 1
 outer loop
  vertex 86.26369 -1093.5707 37.32495
  vertex 86.046646 -1092.7606 37.32495
  vertex 81.52675 -1094.4056 37.32495
 endloop
endfacet
facet normal 0 0 1
 outer loop
  vertex 81.52675 -1094.4056 37.32495
  vertex 86.046646 -1092.7606 37.32495
  vertex 85.691666 -1092.0006 37.32495
 endloop
endfacet
facet normal 0 0 1
 outer loop
  vertex 81.52675 -1094.4056 37.32495
  vertex 85.691666 -1092.0006 37.32495
  vertex 85.21071 -1091.3136 37.32495
 endloop
endfacet
facet normal 0 0 1
 outer loop
  vertex 86.046646 -1096.0507 37.32495
  vertex 86.26369 -1095.2406 37.32495
  vertex 81.52675 -1094.4056 37.32495
 endloop
endfacet
facet normal 0 0 1
 outer loop
  vertex 81.52675 -1094.4056 37.32495
  vertex 86.26369 -1095.2406 37.32495
  vertex 86.336685 -1094.4056 37.32495
 endloop
endfacet
facet normal 0 0 1
 outer loop
  vertex 81.52675 -1094.4056 37.32495
  vertex 86.336685 -1094.4056 37.32495
  vertex 86.26369 -1093.5707 37.32495
 endloop
endfacet
facet normal 0 0 1
 outer loop
  vertex 84.61866 -1098.0906 37.32495
  vertex 85.2107 -1097.4977 37.32495
  vertex 81.52675 -1094.4056 37.32495
 endloop
endfacet
facet normal 0 0 1
 outer loop
  vertex 81.52675 -1094.4056 37.32495
  vertex 85.2107 -1097.4977 37.32495
  vertex 85.691666 -1096.8107 37.32495
 endloop
endfacet
facet normal 0 0 1
 outer loop
  vertex 81.52675 -1094.4056 37.32495
  vertex 85.691666 -1096.8107 37.32495
  vertex 86.046646 -1096.0507 37.32495
 endloop
endfacet
facet normal 0 0 1
 outer loop
  vertex 82.3617 -1099.1426 37.32495
  vertex 83.17164 -1098.9257 37.32495
  vertex 81.52675 -1094.4056 37.32495
 endloop
endfacet
facet normal 0 0 1
 outer loop
  vertex 81.52675 -1094.4056 37.32495
  vertex 83.17164 -1098.9257 37.32495
  vertex 83.93165 -1098.5717 37.32495
 endloop
endfacet
facet normal 0 0 1
 outer loop
  vertex 81.52675 -1094.4056 37.32495
  vertex 83.93165 -1098.5717 37.32495
  vertex 84.61866 -1098.0906 37.32495
 endloop
endfacet
facet normal 0 0 1
 outer loop
  vertex 79.88172 -1098.9257 37.32495
  vertex 80.69068 -1099.1426 37.32495
  vertex 81.52675 -1094.4056 37.32495
 endloop
endfacet
facet normal 0 -0 1
 outer loop
  vertex 81.52675 -1094.4056 37.32495
  vertex 80.69068 -1099.1426 37.32495
  vertex 81.52674 -1099.2156 37.32495
 endloop
endfacet
facet normal 0 -0 1
 outer loop
  vertex 81.52675 -1094.4056 37.32495
  vertex 81.52674 -1099.2156 37.32495
  vertex 82.3617 -1099.1426 37.32495
 endloop
endfacet
facet normal 0 0 1
 outer loop
  vertex 77.84168 -1097.4977 37.32495
  vertex 78.4347 -1098.0906 37.32495
  vertex 81.52675 -1094.4056 37.32495
 endloop
endfacet
facet normal 0 -0 1
 outer loop
  vertex 81.52675 -1094.4056 37.32495
  vertex 78.4347 -1098.0906 37.32495
  vertex 79.12171 -1098.5717 37.32495
 endloop
endfacet
facet normal 0 -0 1
 outer loop
  vertex 81.52675 -1094.4056 37.32495
  vertex 79.12171 -1098.5717 37.32495
  vertex 79.88172 -1098.9257 37.32495
 endloop
endfacet
facet normal 0 0 1
 outer loop
  vertex 76.78969 -1095.2406 37.32495
  vertex 77.00673 -1096.0507 37.32495
  vertex 81.52675 -1094.4056 37.32495
 endloop
endfacet
facet normal 0 -0 1
 outer loop
  vertex 81.52675 -1094.4056 37.32495
  vertex 77.00673 -1096.0507 37.32495
  vertex 77.36073 -1096.8107 37.32495
 endloop
endfacet
facet normal 0 -0 1
 outer loop
  vertex 81.52675 -1094.4056 37.32495
  vertex 77.36073 -1096.8107 37.32495
  vertex 77.84168 -1097.4977 37.32495
 endloop
endfacet
facet normal 0 -0 1
 outer loop
  vertex 90.606705 -1092.7606 37.32495
  vertex 90.38966 -1093.5707 37.32495
  vertex 95.126724 -1094.4056 37.32495
 endloop
endfacet
facet normal -0 0 1
 outer loop
  vertex 95.126724 -1094.4056 37.32495
  vertex 90.38966 -1093.5707 37.32495
  vertex 90.316666 -1094.4056 37.32495
 endloop
endfacet
facet normal 0 -0 1
 outer loop
  vertex 95.126724 -1094.4056 37.32495
  vertex 90.316666 -1094.4056 37.32495
  vertex 90.38966 -1095.2406 37.32495
 endloop
endfacet
facet normal 0 -0 1
 outer loop
  vertex 92.03468 -1090.7206 37.32495
  vertex 91.441666 -1091.3136 37.32495
  vertex 95.126724 -1094.4056 37.32495
 endloop
endfacet
facet normal -0 0 1
 outer loop
  vertex 95.126724 -1094.4056 37.32495
  vertex 91.441666 -1091.3136 37.32495
  vertex 90.96071 -1092.0006 37.32495
 endloop
endfacet
facet normal -0 0 1
 outer loop
  vertex 95.126724 -1094.4056 37.32495
  vertex 90.96071 -1092.0006 37.32495
  vertex 90.606705 -1092.7606 37.32495
 endloop
endfacet
facet normal 0 -0 1
 outer loop
  vertex 94.290665 -1089.6686 37.32495
  vertex 93.481705 -1089.8856 37.32495
  vertex 95.126724 -1094.4056 37.32495
 endloop
endfacet
facet normal -0 0 1
 outer loop
  vertex 95.126724 -1094.4056 37.32495
  vertex 93.481705 -1089.8856 37.32495
  vertex 92.721695 -1090.2396 37.32495
 endloop
endfacet
facet normal -0 0 1
 outer loop
  vertex 95.126724 -1094.4056 37.32495
  vertex 92.721695 -1090.2396 37.32495
  vertex 92.03468 -1090.7206 37.32495
 endloop
endfacet
facet normal -0 0 1
 outer loop
  vertex 96.77174 -1089.8856 37.32495
  vertex 95.961685 -1089.6686 37.32495
  vertex 95.126724 -1094.4056 37.32495
 endloop
endfacet
facet normal 0 0 1
 outer loop
  vertex 95.126724 -1094.4056 37.32495
  vertex 95.961685 -1089.6686 37.32495
  vertex 95.126724 -1089.5956 37.32495
 endloop
endfacet
facet normal -0 0 1
 outer loop
  vertex 95.126724 -1094.4056 37.32495
  vertex 95.126724 -1089.5956 37.32495
  vertex 94.290665 -1089.6686 37.32495
 endloop
endfacet
facet normal -0 0 1
 outer loop
  vertex 98.810684 -1091.3136 37.32495
  vertex 98.218765 -1090.7206 37.32495
  vertex 95.126724 -1094.4056 37.32495
 endloop
endfacet
facet normal 0 0 1
 outer loop
  vertex 95.126724 -1094.4056 37.32495
  vertex 98.218765 -1090.7206 37.32495
  vertex 97.53175 -1090.2396 37.32495
 endloop
endfacet
facet normal 0 0 1
 outer loop
  vertex 95.126724 -1094.4056 37.32495
  vertex 97.53175 -1090.2396 37.32495
  vertex 96.77174 -1089.8856 37.32495
 endloop
endfacet
facet normal -0 0 1
 outer loop
  vertex 99.86366 -1093.5707 37.32495
  vertex 99.64674 -1092.7606 37.32495
  vertex 95.126724 -1094.4056 37.32495
 endloop
endfacet
facet normal 0 0 1
 outer loop
  vertex 95.126724 -1094.4056 37.32495
  vertex 99.64674 -1092.7606 37.32495
  vertex 99.29176 -1092.0006 37.32495
 endloop
endfacet
facet normal 0 0 1
 outer loop
  vertex 95.126724 -1094.4056 37.32495
  vertex 99.29176 -1092.0006 37.32495
  vertex 98.810684 -1091.3136 37.32495
 endloop
endfacet
facet normal 0 0 1
 outer loop
  vertex 99.64674 -1096.0507 37.32495
  vertex 99.86366 -1095.2406 37.32495
  vertex 95.126724 -1094.4056 37.32495
 endloop
endfacet
facet normal 0 0 1
 outer loop
  vertex 95.126724 -1094.4056 37.32495
  vertex 99.86366 -1095.2406 37.32495
  vertex 99.93666 -1094.4056 37.32495
 endloop
endfacet
facet normal 0 0 1
 outer loop
  vertex 95.126724 -1094.4056 37.32495
  vertex 99.93666 -1094.4056 37.32495
  vertex 99.86366 -1093.5707 37.32495
 endloop
endfacet
facet normal 0 0 1
 outer loop
  vertex 98.21876 -1098.0906 37.32495
  vertex 98.81068 -1097.4977 37.32495
  vertex 95.126724 -1094.4056 37.32495
 endloop
endfacet
facet normal 0 0 1
 outer loop
  vertex 95.126724 -1094.4056 37.32495
  vertex 98.81068 -1097.4977 37.32495
  vertex 99.29176 -1096.8107 37.32495
 endloop
endfacet
facet normal 0 0 1
 outer loop
  vertex 95.126724 -1094.4056 37.32495
  vertex 99.29176 -1096.8107 37.32495
  vertex 99.64674 -1096.0507 37.32495
 endloop
endfacet
facet normal 0 0 1
 outer loop
  vertex 95.96168 -1099.1426 37.32495
  vertex 96.771736 -1098.9257 37.32495
  vertex 95.126724 -1094.4056 37.32495
 endloop
endfacet
facet normal 0 0 1
 outer loop
  vertex 95.126724 -1094.4056 37.32495
  vertex 96.771736 -1098.9257 37.32495
  vertex 97.531746 -1098.5717 37.32495
 endloop
endfacet
facet normal 0 0 1
 outer loop
  vertex 95.126724 -1094.4056 37.32495
  vertex 97.531746 -1098.5717 37.32495
  vertex 98.21876 -1098.0906 37.32495
 endloop
endfacet
facet normal 0 0 1
 outer loop
  vertex 93.4817 -1098.9257 37.32495
  vertex 94.29066 -1099.1426 37.32495
  vertex 95.126724 -1094.4056 37.32495
 endloop
endfacet
facet normal 0 -0 1
 outer loop
  vertex 95.126724 -1094.4056 37.32495
  vertex 94.29066 -1099.1426 37.32495
  vertex 95.12672 -1099.2156 37.32495
 endloop
endfacet
facet normal 0 -0 1
 outer loop
  vertex 95.126724 -1094.4056 37.32495
  vertex 95.12672 -1099.2156 37.32495
  vertex 95.96168 -1099.1426 37.32495
 endloop
endfacet
facet normal 0 0 1
 outer loop
  vertex 91.44166 -1097.4977 37.32495
  vertex 92.034676 -1098.0906 37.32495
  vertex 95.126724 -1094.4056 37.32495
 endloop
endfacet
facet normal 0 -0 1
 outer loop
  vertex 95.126724 -1094.4056 37.32495
  vertex 92.034676 -1098.0906 37.32495
  vertex 92.72169 -1098.5717 37.32495
 endloop
endfacet
facet normal 0 -0 1
 outer loop
  vertex 95.126724 -1094.4056 37.32495
  vertex 92.72169 -1098.5717 37.32495
  vertex 93.4817 -1098.9257 37.32495
 endloop
endfacet
facet normal 0 0 1
 outer loop
  vertex 90.38966 -1095.2406 37.32495
  vertex 90.606705 -1096.0507 37.32495
  vertex 95.126724 -1094.4056 37.32495
 endloop
endfacet
facet normal 0 -0 1
 outer loop
  vertex 95.126724 -1094.4056 37.32495
  vertex 90.606705 -1096.0507 37.32495
  vertex 90.96071 -1096.8107 37.32495
 endloop
endfacet
facet normal 0 -0 1
 outer loop
  vertex 95.126724 -1094.4056 37.32495
  vertex 90.96071 -1096.8107 37.32495
  vertex 91.44166 -1097.4977 37.32495
 endloop
endfacet
endsolid 
