solid 
facet normal 0 -0 1
 outer loop
  vertex 248.55957 -979.5091 45.970005
  vertex 248.48737 -979.7785 45.970005
  vertex 250.06305 -980.0564 45.970005
 endloop
endfacet
facet normal -0 0 1
 outer loop
  vertex 250.06305 -980.0564 45.970005
  vertex 248.48737 -979.7785 45.970005
  vertex 248.46307 -980.0564 45.970005
 endloop
endfacet
facet normal 0 -0 1
 outer loop
  vertex 250.06305 -980.0564 45.970005
  vertex 248.46307 -980.0564 45.970005
  vertex 248.48737 -980.33417 45.970005
 endloop
endfacet
facet normal 0 -0 1
 outer loop
  vertex 249.03455 -978.8307 45.970005
  vertex 248.83734 -979.0279 45.970005
  vertex 250.06305 -980.0564 45.970005
 endloop
endfacet
facet normal -0 0 1
 outer loop
  vertex 250.06305 -980.0564 45.970005
  vertex 248.83734 -979.0279 45.970005
  vertex 248.67737 -979.25635 45.970005
 endloop
endfacet
facet normal -0 0 1
 outer loop
  vertex 250.06305 -980.0564 45.970005
  vertex 248.67737 -979.25635 45.970005
  vertex 248.55957 -979.5091 45.970005
 endloop
endfacet
facet normal 0 -0 1
 outer loop
  vertex 249.78528 -978.48065 45.970005
  vertex 249.51587 -978.55286 45.970005
  vertex 250.06305 -980.0564 45.970005
 endloop
endfacet
facet normal -0 0 1
 outer loop
  vertex 250.06305 -980.0564 45.970005
  vertex 249.51587 -978.55286 45.970005
  vertex 249.26306 -978.67065 45.970005
 endloop
endfacet
facet normal -0 0 1
 outer loop
  vertex 250.06305 -980.0564 45.970005
  vertex 249.26306 -978.67065 45.970005
  vertex 249.03455 -978.8307 45.970005
 endloop
endfacet
facet normal -0 0 1
 outer loop
  vertex 250.61023 -978.55286 45.970005
  vertex 250.34082 -978.48065 45.970005
  vertex 250.06305 -980.0564 45.970005
 endloop
endfacet
facet normal 0 0 1
 outer loop
  vertex 250.06305 -980.0564 45.970005
  vertex 250.34082 -978.48065 45.970005
  vertex 250.06305 -978.45636 45.970005
 endloop
endfacet
facet normal -0 0 1
 outer loop
  vertex 250.06305 -980.0564 45.970005
  vertex 250.06305 -978.45636 45.970005
  vertex 249.78528 -978.48065 45.970005
 endloop
endfacet
facet normal -0 0 1
 outer loop
  vertex 251.28876 -979.0279 45.970005
  vertex 251.09143 -978.8307 45.970005
  vertex 250.06305 -980.0564 45.970005
 endloop
endfacet
facet normal 0 0 1
 outer loop
  vertex 250.06305 -980.0564 45.970005
  vertex 251.09143 -978.8307 45.970005
  vertex 250.86304 -978.67065 45.970005
 endloop
endfacet
facet normal 0 0 1
 outer loop
  vertex 250.06305 -980.0564 45.970005
  vertex 250.86304 -978.67065 45.970005
  vertex 250.61023 -978.55286 45.970005
 endloop
endfacet
facet normal -0 0 1
 outer loop
  vertex 251.63873 -979.7785 45.970005
  vertex 251.56653 -979.5091 45.970005
  vertex 250.06305 -980.0564 45.970005
 endloop
endfacet
facet normal 0 0 1
 outer loop
  vertex 250.06305 -980.0564 45.970005
  vertex 251.56653 -979.5091 45.970005
  vertex 251.44867 -979.25635 45.970005
 endloop
endfacet
facet normal 0 0 1
 outer loop
  vertex 250.06305 -980.0564 45.970005
  vertex 251.44867 -979.25635 45.970005
  vertex 251.28876 -979.0279 45.970005
 endloop
endfacet
facet normal 0 0 1
 outer loop
  vertex 251.56653 -980.6036 45.970005
  vertex 251.63873 -980.33417 45.970005
  vertex 250.06305 -980.0564 45.970005
 endloop
endfacet
facet normal 0 0 1
 outer loop
  vertex 250.06305 -980.0564 45.970005
  vertex 251.63873 -980.33417 45.970005
  vertex 251.66302 -980.0564 45.970005
 endloop
endfacet
facet normal 0 0 1
 outer loop
  vertex 250.06305 -980.0564 45.970005
  vertex 251.66302 -980.0564 45.970005
  vertex 251.63873 -979.7785 45.970005
 endloop
endfacet
facet normal 0 0 1
 outer loop
  vertex 251.09143 -981.282 45.970005
  vertex 251.28876 -981.0848 45.970005
  vertex 250.06305 -980.0564 45.970005
 endloop
endfacet
facet normal 0 0 1
 outer loop
  vertex 250.06305 -980.0564 45.970005
  vertex 251.28876 -981.0848 45.970005
  vertex 251.44867 -980.8564 45.970005
 endloop
endfacet
facet normal 0 0 1
 outer loop
  vertex 250.06305 -980.0564 45.970005
  vertex 251.44867 -980.8564 45.970005
  vertex 251.56653 -980.6036 45.970005
 endloop
endfacet
facet normal 0 0 1
 outer loop
  vertex 250.34082 -981.6321 45.970005
  vertex 250.61023 -981.5599 45.970005
  vertex 250.06305 -980.0564 45.970005
 endloop
endfacet
facet normal 0 0 1
 outer loop
  vertex 250.06305 -980.0564 45.970005
  vertex 250.61023 -981.5599 45.970005
  vertex 250.86304 -981.44196 45.970005
 endloop
endfacet
facet normal 0 0 1
 outer loop
  vertex 250.06305 -980.0564 45.970005
  vertex 250.86304 -981.44196 45.970005
  vertex 251.09143 -981.282 45.970005
 endloop
endfacet
facet normal 0 0 1
 outer loop
  vertex 249.51587 -981.5599 45.970005
  vertex 249.78528 -981.6321 45.970005
  vertex 250.06305 -980.0564 45.970005
 endloop
endfacet
facet normal 0 -0 1
 outer loop
  vertex 250.06305 -980.0564 45.970005
  vertex 249.78528 -981.6321 45.970005
  vertex 250.06305 -981.6564 45.970005
 endloop
endfacet
facet normal 0 -0 1
 outer loop
  vertex 250.06305 -980.0564 45.970005
  vertex 250.06305 -981.6564 45.970005
  vertex 250.34082 -981.6321 45.970005
 endloop
endfacet
facet normal 0 0 1
 outer loop
  vertex 248.83734 -981.0848 45.970005
  vertex 249.03455 -981.282 45.970005
  vertex 250.06305 -980.0564 45.970005
 endloop
endfacet
facet normal 0 -0 1
 outer loop
  vertex 250.06305 -980.0564 45.970005
  vertex 249.03455 -981.282 45.970005
  vertex 249.26306 -981.44196 45.970005
 endloop
endfacet
facet normal 0 -0 1
 outer loop
  vertex 250.06305 -980.0564 45.970005
  vertex 249.26306 -981.44196 45.970005
  vertex 249.51587 -981.5599 45.970005
 endloop
endfacet
facet normal 0 0 1
 outer loop
  vertex 248.48737 -980.33417 45.970005
  vertex 248.55957 -980.6036 45.970005
  vertex 250.06305 -980.0564 45.970005
 endloop
endfacet
facet normal 0 -0 1
 outer loop
  vertex 250.06305 -980.0564 45.970005
  vertex 248.55957 -980.6036 45.970005
  vertex 248.67737 -980.8564 45.970005
 endloop
endfacet
facet normal 0 -0 1
 outer loop
  vertex 250.06305 -980.0564 45.970005
  vertex 248.67737 -980.8564 45.970005
  vertex 248.83734 -981.0848 45.970005
 endloop
endfacet
facet normal 0 -0 1
 outer loop
  vertex 248.55957 -985.0091 45.970005
  vertex 248.48737 -985.2785 45.970005
  vertex 250.06305 -985.5564 45.970005
 endloop
endfacet
facet normal -0 0 1
 outer loop
  vertex 250.06305 -985.5564 45.970005
  vertex 248.48737 -985.2785 45.970005
  vertex 248.46307 -985.5564 45.970005
 endloop
endfacet
facet normal 0 -0 1
 outer loop
  vertex 250.06305 -985.5564 45.970005
  vertex 248.46307 -985.5564 45.970005
  vertex 248.48737 -985.83417 45.970005
 endloop
endfacet
facet normal 0 -0 1
 outer loop
  vertex 249.03455 -984.3307 45.970005
  vertex 248.83734 -984.5279 45.970005
  vertex 250.06305 -985.5564 45.970005
 endloop
endfacet
facet normal -0 0 1
 outer loop
  vertex 250.06305 -985.5564 45.970005
  vertex 248.83734 -984.5279 45.970005
  vertex 248.67737 -984.75635 45.970005
 endloop
endfacet
facet normal -0 0 1
 outer loop
  vertex 250.06305 -985.5564 45.970005
  vertex 248.67737 -984.75635 45.970005
  vertex 248.55957 -985.0091 45.970005
 endloop
endfacet
facet normal 0 -0 1
 outer loop
  vertex 249.78528 -983.98065 45.970005
  vertex 249.51587 -984.05286 45.970005
  vertex 250.06305 -985.5564 45.970005
 endloop
endfacet
facet normal -0 0 1
 outer loop
  vertex 250.06305 -985.5564 45.970005
  vertex 249.51587 -984.05286 45.970005
  vertex 249.26306 -984.17065 45.970005
 endloop
endfacet
facet normal -0 0 1
 outer loop
  vertex 250.06305 -985.5564 45.970005
  vertex 249.26306 -984.17065 45.970005
  vertex 249.03455 -984.3307 45.970005
 endloop
endfacet
facet normal -0 0 1
 outer loop
  vertex 250.61023 -984.05286 45.970005
  vertex 250.34082 -983.98065 45.970005
  vertex 250.06305 -985.5564 45.970005
 endloop
endfacet
facet normal 0 0 1
 outer loop
  vertex 250.06305 -985.5564 45.970005
  vertex 250.34082 -983.98065 45.970005
  vertex 250.06305 -983.95636 45.970005
 endloop
endfacet
facet normal -0 0 1
 outer loop
  vertex 250.06305 -985.5564 45.970005
  vertex 250.06305 -983.95636 45.970005
  vertex 249.78528 -983.98065 45.970005
 endloop
endfacet
facet normal -0 0 1
 outer loop
  vertex 251.28876 -984.5279 45.970005
  vertex 251.09143 -984.3307 45.970005
  vertex 250.06305 -985.5564 45.970005
 endloop
endfacet
facet normal 0 0 1
 outer loop
  vertex 250.06305 -985.5564 45.970005
  vertex 251.09143 -984.3307 45.970005
  vertex 250.86304 -984.17065 45.970005
 endloop
endfacet
facet normal 0 0 1
 outer loop
  vertex 250.06305 -985.5564 45.970005
  vertex 250.86304 -984.17065 45.970005
  vertex 250.61023 -984.05286 45.970005
 endloop
endfacet
facet normal -0 0 1
 outer loop
  vertex 251.63873 -985.2785 45.970005
  vertex 251.56653 -985.0091 45.970005
  vertex 250.06305 -985.5564 45.970005
 endloop
endfacet
facet normal 0 0 1
 outer loop
  vertex 250.06305 -985.5564 45.970005
  vertex 251.56653 -985.0091 45.970005
  vertex 251.44867 -984.75635 45.970005
 endloop
endfacet
facet normal 0 0 1
 outer loop
  vertex 250.06305 -985.5564 45.970005
  vertex 251.44867 -984.75635 45.970005
  vertex 251.28876 -984.5279 45.970005
 endloop
endfacet
facet normal 0 0 1
 outer loop
  vertex 251.56653 -986.1036 45.970005
  vertex 251.63873 -985.83417 45.970005
  vertex 250.06305 -985.5564 45.970005
 endloop
endfacet
facet normal 0 0 1
 outer loop
  vertex 250.06305 -985.5564 45.970005
  vertex 251.63873 -985.83417 45.970005
  vertex 251.66302 -985.5564 45.970005
 endloop
endfacet
facet normal 0 0 1
 outer loop
  vertex 250.06305 -985.5564 45.970005
  vertex 251.66302 -985.5564 45.970005
  vertex 251.63873 -985.2785 45.970005
 endloop
endfacet
facet normal 0 0 1
 outer loop
  vertex 251.09143 -986.782 45.970005
  vertex 251.28876 -986.5848 45.970005
  vertex 250.06305 -985.5564 45.970005
 endloop
endfacet
facet normal 0 0 1
 outer loop
  vertex 250.06305 -985.5564 45.970005
  vertex 251.28876 -986.5848 45.970005
  vertex 251.44867 -986.3564 45.970005
 endloop
endfacet
facet normal 0 0 1
 outer loop
  vertex 250.06305 -985.5564 45.970005
  vertex 251.44867 -986.3564 45.970005
  vertex 251.56653 -986.1036 45.970005
 endloop
endfacet
facet normal 0 0 1
 outer loop
  vertex 250.34082 -987.1321 45.970005
  vertex 250.61023 -987.0599 45.970005
  vertex 250.06305 -985.5564 45.970005
 endloop
endfacet
facet normal 0 0 1
 outer loop
  vertex 250.06305 -985.5564 45.970005
  vertex 250.61023 -987.0599 45.970005
  vertex 250.86304 -986.94196 45.970005
 endloop
endfacet
facet normal 0 0 1
 outer loop
  vertex 250.06305 -985.5564 45.970005
  vertex 250.86304 -986.94196 45.970005
  vertex 251.09143 -986.782 45.970005
 endloop
endfacet
facet normal 0 0 1
 outer loop
  vertex 249.51587 -987.0599 45.970005
  vertex 249.78528 -987.1321 45.970005
  vertex 250.06305 -985.5564 45.970005
 endloop
endfacet
facet normal 0 -0 1
 outer loop
  vertex 250.06305 -985.5564 45.970005
  vertex 249.78528 -987.1321 45.970005
  vertex 250.06305 -987.1564 45.970005
 endloop
endfacet
facet normal 0 -0 1
 outer loop
  vertex 250.06305 -985.5564 45.970005
  vertex 250.06305 -987.1564 45.970005
  vertex 250.34082 -987.1321 45.970005
 endloop
endfacet
facet normal 0 0 1
 outer loop
  vertex 248.83734 -986.5848 45.970005
  vertex 249.03455 -986.782 45.970005
  vertex 250.06305 -985.5564 45.970005
 endloop
endfacet
facet normal 0 -0 1
 outer loop
  vertex 250.06305 -985.5564 45.970005
  vertex 249.03455 -986.782 45.970005
  vertex 249.26306 -986.94196 45.970005
 endloop
endfacet
facet normal 0 -0 1
 outer loop
  vertex 250.06305 -985.5564 45.970005
  vertex 249.26306 -986.94196 45.970005
  vertex 249.51587 -987.0599 45.970005
 endloop
endfacet
facet normal 0 0 1
 outer loop
  vertex 248.48737 -985.83417 45.970005
  vertex 248.55957 -986.1036 45.970005
  vertex 250.06305 -985.5564 45.970005
 endloop
endfacet
facet normal 0 -0 1
 outer loop
  vertex 250.06305 -985.5564 45.970005
  vertex 248.55957 -986.1036 45.970005
  vertex 248.67737 -986.3564 45.970005
 endloop
endfacet
facet normal 0 -0 1
 outer loop
  vertex 250.06305 -985.5564 45.970005
  vertex 248.67737 -986.3564 45.970005
  vertex 248.83734 -986.5848 45.970005
 endloop
endfacet
facet normal 0 -0 1
 outer loop
  vertex 248.55957 -993.0091 45.970005
  vertex 248.48737 -993.2785 45.970005
  vertex 250.06305 -993.5564 45.970005
 endloop
endfacet
facet normal -0 0 1
 outer loop
  vertex 250.06305 -993.5564 45.970005
  vertex 248.48737 -993.2785 45.970005
  vertex 248.46307 -993.5564 45.970005
 endloop
endfacet
facet normal 0 -0 1
 outer loop
  vertex 250.06305 -993.5564 45.970005
  vertex 248.46307 -993.5564 45.970005
  vertex 248.48737 -993.83417 45.970005
 endloop
endfacet
facet normal 0 -0 1
 outer loop
  vertex 249.03455 -992.3307 45.970005
  vertex 248.83734 -992.5279 45.970005
  vertex 250.06305 -993.5564 45.970005
 endloop
endfacet
facet normal -0 0 1
 outer loop
  vertex 250.06305 -993.5564 45.970005
  vertex 248.83734 -992.5279 45.970005
  vertex 248.67737 -992.75635 45.970005
 endloop
endfacet
facet normal -0 0 1
 outer loop
  vertex 250.06305 -993.5564 45.970005
  vertex 248.67737 -992.75635 45.970005
  vertex 248.55957 -993.0091 45.970005
 endloop
endfacet
facet normal 0 -0 1
 outer loop
  vertex 249.78528 -991.98065 45.970005
  vertex 249.51587 -992.05286 45.970005
  vertex 250.06305 -993.5564 45.970005
 endloop
endfacet
facet normal -0 0 1
 outer loop
  vertex 250.06305 -993.5564 45.970005
  vertex 249.51587 -992.05286 45.970005
  vertex 249.26306 -992.17065 45.970005
 endloop
endfacet
facet normal -0 0 1
 outer loop
  vertex 250.06305 -993.5564 45.970005
  vertex 249.26306 -992.17065 45.970005
  vertex 249.03455 -992.3307 45.970005
 endloop
endfacet
facet normal -0 0 1
 outer loop
  vertex 250.61023 -992.05286 45.970005
  vertex 250.34082 -991.98065 45.970005
  vertex 250.06305 -993.5564 45.970005
 endloop
endfacet
facet normal 0 0 1
 outer loop
  vertex 250.06305 -993.5564 45.970005
  vertex 250.34082 -991.98065 45.970005
  vertex 250.06305 -991.95636 45.970005
 endloop
endfacet
facet normal -0 0 1
 outer loop
  vertex 250.06305 -993.5564 45.970005
  vertex 250.06305 -991.95636 45.970005
  vertex 249.78528 -991.98065 45.970005
 endloop
endfacet
facet normal -0 0 1
 outer loop
  vertex 251.28876 -992.5279 45.970005
  vertex 251.09143 -992.3307 45.970005
  vertex 250.06305 -993.5564 45.970005
 endloop
endfacet
facet normal 0 0 1
 outer loop
  vertex 250.06305 -993.5564 45.970005
  vertex 251.09143 -992.3307 45.970005
  vertex 250.86304 -992.17065 45.970005
 endloop
endfacet
facet normal 0 0 1
 outer loop
  vertex 250.06305 -993.5564 45.970005
  vertex 250.86304 -992.17065 45.970005
  vertex 250.61023 -992.05286 45.970005
 endloop
endfacet
facet normal -0 0 1
 outer loop
  vertex 251.63873 -993.2785 45.970005
  vertex 251.56653 -993.0091 45.970005
  vertex 250.06305 -993.5564 45.970005
 endloop
endfacet
facet normal 0 0 1
 outer loop
  vertex 250.06305 -993.5564 45.970005
  vertex 251.56653 -993.0091 45.970005
  vertex 251.44867 -992.75635 45.970005
 endloop
endfacet
facet normal 0 0 1
 outer loop
  vertex 250.06305 -993.5564 45.970005
  vertex 251.44867 -992.75635 45.970005
  vertex 251.28876 -992.5279 45.970005
 endloop
endfacet
facet normal 0 0 1
 outer loop
  vertex 251.56653 -994.1036 45.970005
  vertex 251.63873 -993.83417 45.970005
  vertex 250.06305 -993.5564 45.970005
 endloop
endfacet
facet normal 0 0 1
 outer loop
  vertex 250.06305 -993.5564 45.970005
  vertex 251.63873 -993.83417 45.970005
  vertex 251.66302 -993.5564 45.970005
 endloop
endfacet
facet normal 0 0 1
 outer loop
  vertex 250.06305 -993.5564 45.970005
  vertex 251.66302 -993.5564 45.970005
  vertex 251.63873 -993.2785 45.970005
 endloop
endfacet
facet normal 0 0 1
 outer loop
  vertex 251.09143 -994.782 45.970005
  vertex 251.28876 -994.5848 45.970005
  vertex 250.06305 -993.5564 45.970005
 endloop
endfacet
facet normal 0 0 1
 outer loop
  vertex 250.06305 -993.5564 45.970005
  vertex 251.28876 -994.5848 45.970005
  vertex 251.44867 -994.3564 45.970005
 endloop
endfacet
facet normal 0 0 1
 outer loop
  vertex 250.06305 -993.5564 45.970005
  vertex 251.44867 -994.3564 45.970005
  vertex 251.56653 -994.1036 45.970005
 endloop
endfacet
facet normal 0 0 1
 outer loop
  vertex 250.34082 -995.1321 45.970005
  vertex 250.61023 -995.0599 45.970005
  vertex 250.06305 -993.5564 45.970005
 endloop
endfacet
facet normal 0 0 1
 outer loop
  vertex 250.06305 -993.5564 45.970005
  vertex 250.61023 -995.0599 45.970005
  vertex 250.86304 -994.94196 45.970005
 endloop
endfacet
facet normal 0 0 1
 outer loop
  vertex 250.06305 -993.5564 45.970005
  vertex 250.86304 -994.94196 45.970005
  vertex 251.09143 -994.782 45.970005
 endloop
endfacet
facet normal 0 0 1
 outer loop
  vertex 249.51587 -995.0599 45.970005
  vertex 249.78528 -995.1321 45.970005
  vertex 250.06305 -993.5564 45.970005
 endloop
endfacet
facet normal 0 -0 1
 outer loop
  vertex 250.06305 -993.5564 45.970005
  vertex 249.78528 -995.1321 45.970005
  vertex 250.06305 -995.1564 45.970005
 endloop
endfacet
facet normal 0 -0 1
 outer loop
  vertex 250.06305 -993.5564 45.970005
  vertex 250.06305 -995.1564 45.970005
  vertex 250.34082 -995.1321 45.970005
 endloop
endfacet
facet normal 0 0 1
 outer loop
  vertex 248.83734 -994.5848 45.970005
  vertex 249.03455 -994.782 45.970005
  vertex 250.06305 -993.5564 45.970005
 endloop
endfacet
facet normal 0 -0 1
 outer loop
  vertex 250.06305 -993.5564 45.970005
  vertex 249.03455 -994.782 45.970005
  vertex 249.26306 -994.94196 45.970005
 endloop
endfacet
facet normal 0 -0 1
 outer loop
  vertex 250.06305 -993.5564 45.970005
  vertex 249.26306 -994.94196 45.970005
  vertex 249.51587 -995.0599 45.970005
 endloop
endfacet
facet normal 0 0 1
 outer loop
  vertex 248.48737 -993.83417 45.970005
  vertex 248.55957 -994.1036 45.970005
  vertex 250.06305 -993.5564 45.970005
 endloop
endfacet
facet normal 0 -0 1
 outer loop
  vertex 250.06305 -993.5564 45.970005
  vertex 248.55957 -994.1036 45.970005
  vertex 248.67737 -994.3564 45.970005
 endloop
endfacet
facet normal 0 -0 1
 outer loop
  vertex 250.06305 -993.5564 45.970005
  vertex 248.67737 -994.3564 45.970005
  vertex 248.83734 -994.5848 45.970005
 endloop
endfacet
facet normal 0 -0 1
 outer loop
  vertex 248.55957 -998.5091 45.970005
  vertex 248.48737 -998.7785 45.970005
  vertex 250.06305 -999.0564 45.970005
 endloop
endfacet
facet normal -0 0 1
 outer loop
  vertex 250.06305 -999.0564 45.970005
  vertex 248.48737 -998.7785 45.970005
  vertex 248.46307 -999.0564 45.970005
 endloop
endfacet
facet normal 0 -0 1
 outer loop
  vertex 250.06305 -999.0564 45.970005
  vertex 248.46307 -999.0564 45.970005
  vertex 248.48737 -999.33417 45.970005
 endloop
endfacet
facet normal 0 -0 1
 outer loop
  vertex 249.03455 -997.8307 45.970005
  vertex 248.83734 -998.0279 45.970005
  vertex 250.06305 -999.0564 45.970005
 endloop
endfacet
facet normal -0 0 1
 outer loop
  vertex 250.06305 -999.0564 45.970005
  vertex 248.83734 -998.0279 45.970005
  vertex 248.67737 -998.25635 45.970005
 endloop
endfacet
facet normal -0 0 1
 outer loop
  vertex 250.06305 -999.0564 45.970005
  vertex 248.67737 -998.25635 45.970005
  vertex 248.55957 -998.5091 45.970005
 endloop
endfacet
facet normal 0 -0 1
 outer loop
  vertex 249.78528 -997.48065 45.970005
  vertex 249.51587 -997.55286 45.970005
  vertex 250.06305 -999.0564 45.970005
 endloop
endfacet
facet normal -0 0 1
 outer loop
  vertex 250.06305 -999.0564 45.970005
  vertex 249.51587 -997.55286 45.970005
  vertex 249.26306 -997.67065 45.970005
 endloop
endfacet
facet normal -0 0 1
 outer loop
  vertex 250.06305 -999.0564 45.970005
  vertex 249.26306 -997.67065 45.970005
  vertex 249.03455 -997.8307 45.970005
 endloop
endfacet
facet normal -0 0 1
 outer loop
  vertex 250.61023 -997.55286 45.970005
  vertex 250.34082 -997.48065 45.970005
  vertex 250.06305 -999.0564 45.970005
 endloop
endfacet
facet normal 0 0 1
 outer loop
  vertex 250.06305 -999.0564 45.970005
  vertex 250.34082 -997.48065 45.970005
  vertex 250.06305 -997.45636 45.970005
 endloop
endfacet
facet normal -0 0 1
 outer loop
  vertex 250.06305 -999.0564 45.970005
  vertex 250.06305 -997.45636 45.970005
  vertex 249.78528 -997.48065 45.970005
 endloop
endfacet
facet normal -0 0 1
 outer loop
  vertex 251.28876 -998.0279 45.970005
  vertex 251.09143 -997.8307 45.970005
  vertex 250.06305 -999.0564 45.970005
 endloop
endfacet
facet normal 0 0 1
 outer loop
  vertex 250.06305 -999.0564 45.970005
  vertex 251.09143 -997.8307 45.970005
  vertex 250.86304 -997.67065 45.970005
 endloop
endfacet
facet normal 0 0 1
 outer loop
  vertex 250.06305 -999.0564 45.970005
  vertex 250.86304 -997.67065 45.970005
  vertex 250.61023 -997.55286 45.970005
 endloop
endfacet
facet normal -0 0 1
 outer loop
  vertex 251.63873 -998.7785 45.970005
  vertex 251.56653 -998.5091 45.970005
  vertex 250.06305 -999.0564 45.970005
 endloop
endfacet
facet normal 0 0 1
 outer loop
  vertex 250.06305 -999.0564 45.970005
  vertex 251.56653 -998.5091 45.970005
  vertex 251.44867 -998.25635 45.970005
 endloop
endfacet
facet normal 0 0 1
 outer loop
  vertex 250.06305 -999.0564 45.970005
  vertex 251.44867 -998.25635 45.970005
  vertex 251.28876 -998.0279 45.970005
 endloop
endfacet
facet normal 0 0 1
 outer loop
  vertex 251.56653 -999.6036 45.970005
  vertex 251.63873 -999.33417 45.970005
  vertex 250.06305 -999.0564 45.970005
 endloop
endfacet
facet normal 0 0 1
 outer loop
  vertex 250.06305 -999.0564 45.970005
  vertex 251.63873 -999.33417 45.970005
  vertex 251.66302 -999.0564 45.970005
 endloop
endfacet
facet normal 0 0 1
 outer loop
  vertex 250.06305 -999.0564 45.970005
  vertex 251.66302 -999.0564 45.970005
  vertex 251.63873 -998.7785 45.970005
 endloop
endfacet
facet normal 0 0 1
 outer loop
  vertex 251.09143 -1000.28204 45.970005
  vertex 251.28876 -1000.0851 45.970005
  vertex 250.06305 -999.0564 45.970005
 endloop
endfacet
facet normal 0 0 1
 outer loop
  vertex 250.06305 -999.0564 45.970005
  vertex 251.28876 -1000.0851 45.970005
  vertex 251.44867 -999.8564 45.970005
 endloop
endfacet
facet normal 0 0 1
 outer loop
  vertex 250.06305 -999.0564 45.970005
  vertex 251.44867 -999.8564 45.970005
  vertex 251.56653 -999.6036 45.970005
 endloop
endfacet
facet normal 0 0 1
 outer loop
  vertex 250.34082 -1000.6321 45.970005
  vertex 250.61023 -1000.56006 45.970005
  vertex 250.06305 -999.0564 45.970005
 endloop
endfacet
facet normal 0 0 1
 outer loop
  vertex 250.06305 -999.0564 45.970005
  vertex 250.61023 -1000.56006 45.970005
  vertex 250.86304 -1000.4421 45.970005
 endloop
endfacet
facet normal 0 0 1
 outer loop
  vertex 250.06305 -999.0564 45.970005
  vertex 250.86304 -1000.4421 45.970005
  vertex 251.09143 -1000.28204 45.970005
 endloop
endfacet
facet normal 0 0 1
 outer loop
  vertex 249.51587 -1000.56006 45.970005
  vertex 249.78528 -1000.6321 45.970005
  vertex 250.06305 -999.0564 45.970005
 endloop
endfacet
facet normal 0 -0 1
 outer loop
  vertex 250.06305 -999.0564 45.970005
  vertex 249.78528 -1000.6321 45.970005
  vertex 250.06305 -1000.65607 45.970005
 endloop
endfacet
facet normal 0 -0 1
 outer loop
  vertex 250.06305 -999.0564 45.970005
  vertex 250.06305 -1000.65607 45.970005
  vertex 250.34082 -1000.6321 45.970005
 endloop
endfacet
facet normal 0 0 1
 outer loop
  vertex 248.83734 -1000.0851 45.970005
  vertex 249.03455 -1000.28204 45.970005
  vertex 250.06305 -999.0564 45.970005
 endloop
endfacet
facet normal 0 -0 1
 outer loop
  vertex 250.06305 -999.0564 45.970005
  vertex 249.03455 -1000.28204 45.970005
  vertex 249.26306 -1000.4421 45.970005
 endloop
endfacet
facet normal 0 -0 1
 outer loop
  vertex 250.06305 -999.0564 45.970005
  vertex 249.26306 -1000.4421 45.970005
  vertex 249.51587 -1000.56006 45.970005
 endloop
endfacet
facet normal 0 0 1
 outer loop
  vertex 248.48737 -999.33417 45.970005
  vertex 248.55957 -999.6036 45.970005
  vertex 250.06305 -999.0564 45.970005
 endloop
endfacet
facet normal 0 -0 1
 outer loop
  vertex 250.06305 -999.0564 45.970005
  vertex 248.55957 -999.6036 45.970005
  vertex 248.67737 -999.8564 45.970005
 endloop
endfacet
facet normal 0 -0 1
 outer loop
  vertex 250.06305 -999.0564 45.970005
  vertex 248.67737 -999.8564 45.970005
  vertex 248.83734 -1000.0851 45.970005
 endloop
endfacet
facet normal 0 -0 1
 outer loop
  vertex 239.55957 -998.5091 45.970005
  vertex 239.48737 -998.7785 45.970005
  vertex 241.06305 -999.0564 45.970005
 endloop
endfacet
facet normal -0 0 1
 outer loop
  vertex 241.06305 -999.0564 45.970005
  vertex 239.48737 -998.7785 45.970005
  vertex 239.46307 -999.0564 45.970005
 endloop
endfacet
facet normal 0 -0 1
 outer loop
  vertex 241.06305 -999.0564 45.970005
  vertex 239.46307 -999.0564 45.970005
  vertex 239.48737 -999.33417 45.970005
 endloop
endfacet
facet normal 0 -0 1
 outer loop
  vertex 240.03455 -997.8307 45.970005
  vertex 239.83734 -998.0279 45.970005
  vertex 241.06305 -999.0564 45.970005
 endloop
endfacet
facet normal -0 0 1
 outer loop
  vertex 241.06305 -999.0564 45.970005
  vertex 239.83734 -998.0279 45.970005
  vertex 239.67737 -998.25635 45.970005
 endloop
endfacet
facet normal -0 0 1
 outer loop
  vertex 241.06305 -999.0564 45.970005
  vertex 239.67737 -998.25635 45.970005
  vertex 239.55957 -998.5091 45.970005
 endloop
endfacet
facet normal 0 -0 1
 outer loop
  vertex 240.78528 -997.48065 45.970005
  vertex 240.51587 -997.55286 45.970005
  vertex 241.06305 -999.0564 45.970005
 endloop
endfacet
facet normal -0 0 1
 outer loop
  vertex 241.06305 -999.0564 45.970005
  vertex 240.51587 -997.55286 45.970005
  vertex 240.26306 -997.67065 45.970005
 endloop
endfacet
facet normal -0 0 1
 outer loop
  vertex 241.06305 -999.0564 45.970005
  vertex 240.26306 -997.67065 45.970005
  vertex 240.03455 -997.8307 45.970005
 endloop
endfacet
facet normal -0 0 1
 outer loop
  vertex 241.61023 -997.55286 45.970005
  vertex 241.34082 -997.48065 45.970005
  vertex 241.06305 -999.0564 45.970005
 endloop
endfacet
facet normal 0 0 1
 outer loop
  vertex 241.06305 -999.0564 45.970005
  vertex 241.34082 -997.48065 45.970005
  vertex 241.06305 -997.45636 45.970005
 endloop
endfacet
facet normal -0 0 1
 outer loop
  vertex 241.06305 -999.0564 45.970005
  vertex 241.06305 -997.45636 45.970005
  vertex 240.78528 -997.48065 45.970005
 endloop
endfacet
facet normal -0 0 1
 outer loop
  vertex 242.28876 -998.0279 45.970005
  vertex 242.09143 -997.8307 45.970005
  vertex 241.06305 -999.0564 45.970005
 endloop
endfacet
facet normal 0 0 1
 outer loop
  vertex 241.06305 -999.0564 45.970005
  vertex 242.09143 -997.8307 45.970005
  vertex 241.86304 -997.67065 45.970005
 endloop
endfacet
facet normal 0 0 1
 outer loop
  vertex 241.06305 -999.0564 45.970005
  vertex 241.86304 -997.67065 45.970005
  vertex 241.61023 -997.55286 45.970005
 endloop
endfacet
facet normal -0 0 1
 outer loop
  vertex 242.63873 -998.7785 45.970005
  vertex 242.56653 -998.5091 45.970005
  vertex 241.06305 -999.0564 45.970005
 endloop
endfacet
facet normal 0 0 1
 outer loop
  vertex 241.06305 -999.0564 45.970005
  vertex 242.56653 -998.5091 45.970005
  vertex 242.44867 -998.25635 45.970005
 endloop
endfacet
facet normal 0 0 1
 outer loop
  vertex 241.06305 -999.0564 45.970005
  vertex 242.44867 -998.25635 45.970005
  vertex 242.28876 -998.0279 45.970005
 endloop
endfacet
facet normal 0 0 1
 outer loop
  vertex 242.56653 -999.6036 45.970005
  vertex 242.63873 -999.33417 45.970005
  vertex 241.06305 -999.0564 45.970005
 endloop
endfacet
facet normal 0 0 1
 outer loop
  vertex 241.06305 -999.0564 45.970005
  vertex 242.63873 -999.33417 45.970005
  vertex 242.66302 -999.0564 45.970005
 endloop
endfacet
facet normal 0 0 1
 outer loop
  vertex 241.06305 -999.0564 45.970005
  vertex 242.66302 -999.0564 45.970005
  vertex 242.63873 -998.7785 45.970005
 endloop
endfacet
facet normal 0 0 1
 outer loop
  vertex 242.09143 -1000.28204 45.970005
  vertex 242.28876 -1000.0851 45.970005
  vertex 241.06305 -999.0564 45.970005
 endloop
endfacet
facet normal 0 0 1
 outer loop
  vertex 241.06305 -999.0564 45.970005
  vertex 242.28876 -1000.0851 45.970005
  vertex 242.44867 -999.8564 45.970005
 endloop
endfacet
facet normal 0 0 1
 outer loop
  vertex 241.06305 -999.0564 45.970005
  vertex 242.44867 -999.8564 45.970005
  vertex 242.56653 -999.6036 45.970005
 endloop
endfacet
facet normal 0 0 1
 outer loop
  vertex 241.34082 -1000.6321 45.970005
  vertex 241.61023 -1000.56006 45.970005
  vertex 241.06305 -999.0564 45.970005
 endloop
endfacet
facet normal 0 0 1
 outer loop
  vertex 241.06305 -999.0564 45.970005
  vertex 241.61023 -1000.56006 45.970005
  vertex 241.86304 -1000.4421 45.970005
 endloop
endfacet
facet normal 0 0 1
 outer loop
  vertex 241.06305 -999.0564 45.970005
  vertex 241.86304 -1000.4421 45.970005
  vertex 242.09143 -1000.28204 45.970005
 endloop
endfacet
facet normal 0 0 1
 outer loop
  vertex 240.51587 -1000.56006 45.970005
  vertex 240.78528 -1000.6321 45.970005
  vertex 241.06305 -999.0564 45.970005
 endloop
endfacet
facet normal 0 -0 1
 outer loop
  vertex 241.06305 -999.0564 45.970005
  vertex 240.78528 -1000.6321 45.970005
  vertex 241.06305 -1000.65607 45.970005
 endloop
endfacet
facet normal 0 -0 1
 outer loop
  vertex 241.06305 -999.0564 45.970005
  vertex 241.06305 -1000.65607 45.970005
  vertex 241.34082 -1000.6321 45.970005
 endloop
endfacet
facet normal 0 0 1
 outer loop
  vertex 239.83734 -1000.0851 45.970005
  vertex 240.03455 -1000.28204 45.970005
  vertex 241.06305 -999.0564 45.970005
 endloop
endfacet
facet normal 0 -0 1
 outer loop
  vertex 241.06305 -999.0564 45.970005
  vertex 240.03455 -1000.28204 45.970005
  vertex 240.26306 -1000.4421 45.970005
 endloop
endfacet
facet normal 0 -0 1
 outer loop
  vertex 241.06305 -999.0564 45.970005
  vertex 240.26306 -1000.4421 45.970005
  vertex 240.51587 -1000.56006 45.970005
 endloop
endfacet
facet normal 0 0 1
 outer loop
  vertex 239.48737 -999.33417 45.970005
  vertex 239.55957 -999.6036 45.970005
  vertex 241.06305 -999.0564 45.970005
 endloop
endfacet
facet normal 0 -0 1
 outer loop
  vertex 241.06305 -999.0564 45.970005
  vertex 239.55957 -999.6036 45.970005
  vertex 239.67737 -999.8564 45.970005
 endloop
endfacet
facet normal 0 -0 1
 outer loop
  vertex 241.06305 -999.0564 45.970005
  vertex 239.67737 -999.8564 45.970005
  vertex 239.83734 -1000.0851 45.970005
 endloop
endfacet
facet normal 0 -0 1
 outer loop
  vertex 239.55957 -993.0091 45.970005
  vertex 239.48737 -993.2785 45.970005
  vertex 241.06305 -993.5564 45.970005
 endloop
endfacet
facet normal -0 0 1
 outer loop
  vertex 241.06305 -993.5564 45.970005
  vertex 239.48737 -993.2785 45.970005
  vertex 239.46307 -993.5564 45.970005
 endloop
endfacet
facet normal 0 -0 1
 outer loop
  vertex 241.06305 -993.5564 45.970005
  vertex 239.46307 -993.5564 45.970005
  vertex 239.48737 -993.83417 45.970005
 endloop
endfacet
facet normal 0 -0 1
 outer loop
  vertex 240.03455 -992.3307 45.970005
  vertex 239.83734 -992.5279 45.970005
  vertex 241.06305 -993.5564 45.970005
 endloop
endfacet
facet normal -0 0 1
 outer loop
  vertex 241.06305 -993.5564 45.970005
  vertex 239.83734 -992.5279 45.970005
  vertex 239.67737 -992.75635 45.970005
 endloop
endfacet
facet normal -0 0 1
 outer loop
  vertex 241.06305 -993.5564 45.970005
  vertex 239.67737 -992.75635 45.970005
  vertex 239.55957 -993.0091 45.970005
 endloop
endfacet
facet normal 0 -0 1
 outer loop
  vertex 240.78528 -991.98065 45.970005
  vertex 240.51587 -992.05286 45.970005
  vertex 241.06305 -993.5564 45.970005
 endloop
endfacet
facet normal -0 0 1
 outer loop
  vertex 241.06305 -993.5564 45.970005
  vertex 240.51587 -992.05286 45.970005
  vertex 240.26306 -992.17065 45.970005
 endloop
endfacet
facet normal -0 0 1
 outer loop
  vertex 241.06305 -993.5564 45.970005
  vertex 240.26306 -992.17065 45.970005
  vertex 240.03455 -992.3307 45.970005
 endloop
endfacet
facet normal -0 0 1
 outer loop
  vertex 241.61023 -992.05286 45.970005
  vertex 241.34082 -991.98065 45.970005
  vertex 241.06305 -993.5564 45.970005
 endloop
endfacet
facet normal 0 0 1
 outer loop
  vertex 241.06305 -993.5564 45.970005
  vertex 241.34082 -991.98065 45.970005
  vertex 241.06305 -991.95636 45.970005
 endloop
endfacet
facet normal -0 0 1
 outer loop
  vertex 241.06305 -993.5564 45.970005
  vertex 241.06305 -991.95636 45.970005
  vertex 240.78528 -991.98065 45.970005
 endloop
endfacet
facet normal -0 0 1
 outer loop
  vertex 242.28876 -992.5279 45.970005
  vertex 242.09143 -992.3307 45.970005
  vertex 241.06305 -993.5564 45.970005
 endloop
endfacet
facet normal 0 0 1
 outer loop
  vertex 241.06305 -993.5564 45.970005
  vertex 242.09143 -992.3307 45.970005
  vertex 241.86304 -992.17065 45.970005
 endloop
endfacet
facet normal 0 0 1
 outer loop
  vertex 241.06305 -993.5564 45.970005
  vertex 241.86304 -992.17065 45.970005
  vertex 241.61023 -992.05286 45.970005
 endloop
endfacet
facet normal -0 0 1
 outer loop
  vertex 242.63873 -993.2785 45.970005
  vertex 242.56653 -993.0091 45.970005
  vertex 241.06305 -993.5564 45.970005
 endloop
endfacet
facet normal 0 0 1
 outer loop
  vertex 241.06305 -993.5564 45.970005
  vertex 242.56653 -993.0091 45.970005
  vertex 242.44867 -992.75635 45.970005
 endloop
endfacet
facet normal 0 0 1
 outer loop
  vertex 241.06305 -993.5564 45.970005
  vertex 242.44867 -992.75635 45.970005
  vertex 242.28876 -992.5279 45.970005
 endloop
endfacet
facet normal 0 0 1
 outer loop
  vertex 242.56653 -994.1036 45.970005
  vertex 242.63873 -993.83417 45.970005
  vertex 241.06305 -993.5564 45.970005
 endloop
endfacet
facet normal 0 0 1
 outer loop
  vertex 241.06305 -993.5564 45.970005
  vertex 242.63873 -993.83417 45.970005
  vertex 242.66302 -993.5564 45.970005
 endloop
endfacet
facet normal 0 0 1
 outer loop
  vertex 241.06305 -993.5564 45.970005
  vertex 242.66302 -993.5564 45.970005
  vertex 242.63873 -993.2785 45.970005
 endloop
endfacet
facet normal 0 0 1
 outer loop
  vertex 242.09143 -994.782 45.970005
  vertex 242.28876 -994.5848 45.970005
  vertex 241.06305 -993.5564 45.970005
 endloop
endfacet
facet normal 0 0 1
 outer loop
  vertex 241.06305 -993.5564 45.970005
  vertex 242.28876 -994.5848 45.970005
  vertex 242.44867 -994.3564 45.970005
 endloop
endfacet
facet normal 0 0 1
 outer loop
  vertex 241.06305 -993.5564 45.970005
  vertex 242.44867 -994.3564 45.970005
  vertex 242.56653 -994.1036 45.970005
 endloop
endfacet
facet normal 0 0 1
 outer loop
  vertex 241.34082 -995.1321 45.970005
  vertex 241.61023 -995.0599 45.970005
  vertex 241.06305 -993.5564 45.970005
 endloop
endfacet
facet normal 0 0 1
 outer loop
  vertex 241.06305 -993.5564 45.970005
  vertex 241.61023 -995.0599 45.970005
  vertex 241.86304 -994.94196 45.970005
 endloop
endfacet
facet normal 0 0 1
 outer loop
  vertex 241.06305 -993.5564 45.970005
  vertex 241.86304 -994.94196 45.970005
  vertex 242.09143 -994.782 45.970005
 endloop
endfacet
facet normal 0 0 1
 outer loop
  vertex 240.51587 -995.0599 45.970005
  vertex 240.78528 -995.1321 45.970005
  vertex 241.06305 -993.5564 45.970005
 endloop
endfacet
facet normal 0 -0 1
 outer loop
  vertex 241.06305 -993.5564 45.970005
  vertex 240.78528 -995.1321 45.970005
  vertex 241.06305 -995.1564 45.970005
 endloop
endfacet
facet normal 0 -0 1
 outer loop
  vertex 241.06305 -993.5564 45.970005
  vertex 241.06305 -995.1564 45.970005
  vertex 241.34082 -995.1321 45.970005
 endloop
endfacet
facet normal 0 0 1
 outer loop
  vertex 239.83734 -994.5848 45.970005
  vertex 240.03455 -994.782 45.970005
  vertex 241.06305 -993.5564 45.970005
 endloop
endfacet
facet normal 0 -0 1
 outer loop
  vertex 241.06305 -993.5564 45.970005
  vertex 240.03455 -994.782 45.970005
  vertex 240.26306 -994.94196 45.970005
 endloop
endfacet
facet normal 0 -0 1
 outer loop
  vertex 241.06305 -993.5564 45.970005
  vertex 240.26306 -994.94196 45.970005
  vertex 240.51587 -995.0599 45.970005
 endloop
endfacet
facet normal 0 0 1
 outer loop
  vertex 239.48737 -993.83417 45.970005
  vertex 239.55957 -994.1036 45.970005
  vertex 241.06305 -993.5564 45.970005
 endloop
endfacet
facet normal 0 -0 1
 outer loop
  vertex 241.06305 -993.5564 45.970005
  vertex 239.55957 -994.1036 45.970005
  vertex 239.67737 -994.3564 45.970005
 endloop
endfacet
facet normal 0 -0 1
 outer loop
  vertex 241.06305 -993.5564 45.970005
  vertex 239.67737 -994.3564 45.970005
  vertex 239.83734 -994.5848 45.970005
 endloop
endfacet
facet normal 0 -0 1
 outer loop
  vertex 239.55957 -985.0091 45.970005
  vertex 239.48737 -985.2785 45.970005
  vertex 241.06305 -985.5564 45.970005
 endloop
endfacet
facet normal -0 0 1
 outer loop
  vertex 241.06305 -985.5564 45.970005
  vertex 239.48737 -985.2785 45.970005
  vertex 239.46307 -985.5564 45.970005
 endloop
endfacet
facet normal 0 -0 1
 outer loop
  vertex 241.06305 -985.5564 45.970005
  vertex 239.46307 -985.5564 45.970005
  vertex 239.48737 -985.83417 45.970005
 endloop
endfacet
facet normal 0 -0 1
 outer loop
  vertex 240.03455 -984.3307 45.970005
  vertex 239.83734 -984.5279 45.970005
  vertex 241.06305 -985.5564 45.970005
 endloop
endfacet
facet normal -0 0 1
 outer loop
  vertex 241.06305 -985.5564 45.970005
  vertex 239.83734 -984.5279 45.970005
  vertex 239.67737 -984.75635 45.970005
 endloop
endfacet
facet normal -0 0 1
 outer loop
  vertex 241.06305 -985.5564 45.970005
  vertex 239.67737 -984.75635 45.970005
  vertex 239.55957 -985.0091 45.970005
 endloop
endfacet
facet normal 0 -0 1
 outer loop
  vertex 240.78528 -983.98065 45.970005
  vertex 240.51587 -984.05286 45.970005
  vertex 241.06305 -985.5564 45.970005
 endloop
endfacet
facet normal -0 0 1
 outer loop
  vertex 241.06305 -985.5564 45.970005
  vertex 240.51587 -984.05286 45.970005
  vertex 240.26306 -984.17065 45.970005
 endloop
endfacet
facet normal -0 0 1
 outer loop
  vertex 241.06305 -985.5564 45.970005
  vertex 240.26306 -984.17065 45.970005
  vertex 240.03455 -984.3307 45.970005
 endloop
endfacet
facet normal -0 0 1
 outer loop
  vertex 241.61023 -984.05286 45.970005
  vertex 241.34082 -983.98065 45.970005
  vertex 241.06305 -985.5564 45.970005
 endloop
endfacet
facet normal 0 0 1
 outer loop
  vertex 241.06305 -985.5564 45.970005
  vertex 241.34082 -983.98065 45.970005
  vertex 241.06305 -983.95636 45.970005
 endloop
endfacet
facet normal -0 0 1
 outer loop
  vertex 241.06305 -985.5564 45.970005
  vertex 241.06305 -983.95636 45.970005
  vertex 240.78528 -983.98065 45.970005
 endloop
endfacet
facet normal -0 0 1
 outer loop
  vertex 242.28876 -984.5279 45.970005
  vertex 242.09143 -984.3307 45.970005
  vertex 241.06305 -985.5564 45.970005
 endloop
endfacet
facet normal 0 0 1
 outer loop
  vertex 241.06305 -985.5564 45.970005
  vertex 242.09143 -984.3307 45.970005
  vertex 241.86304 -984.17065 45.970005
 endloop
endfacet
facet normal 0 0 1
 outer loop
  vertex 241.06305 -985.5564 45.970005
  vertex 241.86304 -984.17065 45.970005
  vertex 241.61023 -984.05286 45.970005
 endloop
endfacet
facet normal -0 0 1
 outer loop
  vertex 242.63873 -985.2785 45.970005
  vertex 242.56653 -985.0091 45.970005
  vertex 241.06305 -985.5564 45.970005
 endloop
endfacet
facet normal 0 0 1
 outer loop
  vertex 241.06305 -985.5564 45.970005
  vertex 242.56653 -985.0091 45.970005
  vertex 242.44867 -984.75635 45.970005
 endloop
endfacet
facet normal 0 0 1
 outer loop
  vertex 241.06305 -985.5564 45.970005
  vertex 242.44867 -984.75635 45.970005
  vertex 242.28876 -984.5279 45.970005
 endloop
endfacet
facet normal 0 0 1
 outer loop
  vertex 242.56653 -986.1036 45.970005
  vertex 242.63873 -985.83417 45.970005
  vertex 241.06305 -985.5564 45.970005
 endloop
endfacet
facet normal 0 0 1
 outer loop
  vertex 241.06305 -985.5564 45.970005
  vertex 242.63873 -985.83417 45.970005
  vertex 242.66302 -985.5564 45.970005
 endloop
endfacet
facet normal 0 0 1
 outer loop
  vertex 241.06305 -985.5564 45.970005
  vertex 242.66302 -985.5564 45.970005
  vertex 242.63873 -985.2785 45.970005
 endloop
endfacet
facet normal 0 0 1
 outer loop
  vertex 242.09143 -986.782 45.970005
  vertex 242.28876 -986.5848 45.970005
  vertex 241.06305 -985.5564 45.970005
 endloop
endfacet
facet normal 0 0 1
 outer loop
  vertex 241.06305 -985.5564 45.970005
  vertex 242.28876 -986.5848 45.970005
  vertex 242.44867 -986.3564 45.970005
 endloop
endfacet
facet normal 0 0 1
 outer loop
  vertex 241.06305 -985.5564 45.970005
  vertex 242.44867 -986.3564 45.970005
  vertex 242.56653 -986.1036 45.970005
 endloop
endfacet
facet normal 0 0 1
 outer loop
  vertex 241.34082 -987.1321 45.970005
  vertex 241.61023 -987.0599 45.970005
  vertex 241.06305 -985.5564 45.970005
 endloop
endfacet
facet normal 0 0 1
 outer loop
  vertex 241.06305 -985.5564 45.970005
  vertex 241.61023 -987.0599 45.970005
  vertex 241.86304 -986.94196 45.970005
 endloop
endfacet
facet normal 0 0 1
 outer loop
  vertex 241.06305 -985.5564 45.970005
  vertex 241.86304 -986.94196 45.970005
  vertex 242.09143 -986.782 45.970005
 endloop
endfacet
facet normal 0 0 1
 outer loop
  vertex 240.51587 -987.0599 45.970005
  vertex 240.78528 -987.1321 45.970005
  vertex 241.06305 -985.5564 45.970005
 endloop
endfacet
facet normal 0 -0 1
 outer loop
  vertex 241.06305 -985.5564 45.970005
  vertex 240.78528 -987.1321 45.970005
  vertex 241.06305 -987.1564 45.970005
 endloop
endfacet
facet normal 0 -0 1
 outer loop
  vertex 241.06305 -985.5564 45.970005
  vertex 241.06305 -987.1564 45.970005
  vertex 241.34082 -987.1321 45.970005
 endloop
endfacet
facet normal 0 0 1
 outer loop
  vertex 239.83734 -986.5848 45.970005
  vertex 240.03455 -986.782 45.970005
  vertex 241.06305 -985.5564 45.970005
 endloop
endfacet
facet normal 0 -0 1
 outer loop
  vertex 241.06305 -985.5564 45.970005
  vertex 240.03455 -986.782 45.970005
  vertex 240.26306 -986.94196 45.970005
 endloop
endfacet
facet normal 0 -0 1
 outer loop
  vertex 241.06305 -985.5564 45.970005
  vertex 240.26306 -986.94196 45.970005
  vertex 240.51587 -987.0599 45.970005
 endloop
endfacet
facet normal 0 0 1
 outer loop
  vertex 239.48737 -985.83417 45.970005
  vertex 239.55957 -986.1036 45.970005
  vertex 241.06305 -985.5564 45.970005
 endloop
endfacet
facet normal 0 -0 1
 outer loop
  vertex 241.06305 -985.5564 45.970005
  vertex 239.55957 -986.1036 45.970005
  vertex 239.67737 -986.3564 45.970005
 endloop
endfacet
facet normal 0 -0 1
 outer loop
  vertex 241.06305 -985.5564 45.970005
  vertex 239.67737 -986.3564 45.970005
  vertex 239.83734 -986.5848 45.970005
 endloop
endfacet
facet normal 0 -0 1
 outer loop
  vertex 239.55957 -979.5091 45.970005
  vertex 239.48737 -979.7785 45.970005
  vertex 241.06305 -980.0564 45.970005
 endloop
endfacet
facet normal -0 0 1
 outer loop
  vertex 241.06305 -980.0564 45.970005
  vertex 239.48737 -979.7785 45.970005
  vertex 239.46307 -980.0564 45.970005
 endloop
endfacet
facet normal 0 -0 1
 outer loop
  vertex 241.06305 -980.0564 45.970005
  vertex 239.46307 -980.0564 45.970005
  vertex 239.48737 -980.33417 45.970005
 endloop
endfacet
facet normal 0 -0 1
 outer loop
  vertex 240.03455 -978.8307 45.970005
  vertex 239.83734 -979.0279 45.970005
  vertex 241.06305 -980.0564 45.970005
 endloop
endfacet
facet normal -0 0 1
 outer loop
  vertex 241.06305 -980.0564 45.970005
  vertex 239.83734 -979.0279 45.970005
  vertex 239.67737 -979.25635 45.970005
 endloop
endfacet
facet normal -0 0 1
 outer loop
  vertex 241.06305 -980.0564 45.970005
  vertex 239.67737 -979.25635 45.970005
  vertex 239.55957 -979.5091 45.970005
 endloop
endfacet
facet normal 0 -0 1
 outer loop
  vertex 240.78528 -978.48065 45.970005
  vertex 240.51587 -978.55286 45.970005
  vertex 241.06305 -980.0564 45.970005
 endloop
endfacet
facet normal -0 0 1
 outer loop
  vertex 241.06305 -980.0564 45.970005
  vertex 240.51587 -978.55286 45.970005
  vertex 240.26306 -978.67065 45.970005
 endloop
endfacet
facet normal -0 0 1
 outer loop
  vertex 241.06305 -980.0564 45.970005
  vertex 240.26306 -978.67065 45.970005
  vertex 240.03455 -978.8307 45.970005
 endloop
endfacet
facet normal -0 0 1
 outer loop
  vertex 241.61023 -978.55286 45.970005
  vertex 241.34082 -978.48065 45.970005
  vertex 241.06305 -980.0564 45.970005
 endloop
endfacet
facet normal 0 0 1
 outer loop
  vertex 241.06305 -980.0564 45.970005
  vertex 241.34082 -978.48065 45.970005
  vertex 241.06305 -978.45636 45.970005
 endloop
endfacet
facet normal -0 0 1
 outer loop
  vertex 241.06305 -980.0564 45.970005
  vertex 241.06305 -978.45636 45.970005
  vertex 240.78528 -978.48065 45.970005
 endloop
endfacet
facet normal -0 0 1
 outer loop
  vertex 242.28876 -979.0279 45.970005
  vertex 242.09143 -978.8307 45.970005
  vertex 241.06305 -980.0564 45.970005
 endloop
endfacet
facet normal 0 0 1
 outer loop
  vertex 241.06305 -980.0564 45.970005
  vertex 242.09143 -978.8307 45.970005
  vertex 241.86304 -978.67065 45.970005
 endloop
endfacet
facet normal 0 0 1
 outer loop
  vertex 241.06305 -980.0564 45.970005
  vertex 241.86304 -978.67065 45.970005
  vertex 241.61023 -978.55286 45.970005
 endloop
endfacet
facet normal -0 0 1
 outer loop
  vertex 242.63873 -979.7785 45.970005
  vertex 242.56653 -979.5091 45.970005
  vertex 241.06305 -980.0564 45.970005
 endloop
endfacet
facet normal 0 0 1
 outer loop
  vertex 241.06305 -980.0564 45.970005
  vertex 242.56653 -979.5091 45.970005
  vertex 242.44867 -979.25635 45.970005
 endloop
endfacet
facet normal 0 0 1
 outer loop
  vertex 241.06305 -980.0564 45.970005
  vertex 242.44867 -979.25635 45.970005
  vertex 242.28876 -979.0279 45.970005
 endloop
endfacet
facet normal 0 0 1
 outer loop
  vertex 242.56653 -980.6036 45.970005
  vertex 242.63873 -980.33417 45.970005
  vertex 241.06305 -980.0564 45.970005
 endloop
endfacet
facet normal 0 0 1
 outer loop
  vertex 241.06305 -980.0564 45.970005
  vertex 242.63873 -980.33417 45.970005
  vertex 242.66302 -980.0564 45.970005
 endloop
endfacet
facet normal 0 0 1
 outer loop
  vertex 241.06305 -980.0564 45.970005
  vertex 242.66302 -980.0564 45.970005
  vertex 242.63873 -979.7785 45.970005
 endloop
endfacet
facet normal 0 0 1
 outer loop
  vertex 242.09143 -981.282 45.970005
  vertex 242.28876 -981.0848 45.970005
  vertex 241.06305 -980.0564 45.970005
 endloop
endfacet
facet normal 0 0 1
 outer loop
  vertex 241.06305 -980.0564 45.970005
  vertex 242.28876 -981.0848 45.970005
  vertex 242.44867 -980.8564 45.970005
 endloop
endfacet
facet normal 0 0 1
 outer loop
  vertex 241.06305 -980.0564 45.970005
  vertex 242.44867 -980.8564 45.970005
  vertex 242.56653 -980.6036 45.970005
 endloop
endfacet
facet normal 0 0 1
 outer loop
  vertex 241.34082 -981.6321 45.970005
  vertex 241.61023 -981.5599 45.970005
  vertex 241.06305 -980.0564 45.970005
 endloop
endfacet
facet normal 0 0 1
 outer loop
  vertex 241.06305 -980.0564 45.970005
  vertex 241.61023 -981.5599 45.970005
  vertex 241.86304 -981.44196 45.970005
 endloop
endfacet
facet normal 0 0 1
 outer loop
  vertex 241.06305 -980.0564 45.970005
  vertex 241.86304 -981.44196 45.970005
  vertex 242.09143 -981.282 45.970005
 endloop
endfacet
facet normal 0 0 1
 outer loop
  vertex 240.51587 -981.5599 45.970005
  vertex 240.78528 -981.6321 45.970005
  vertex 241.06305 -980.0564 45.970005
 endloop
endfacet
facet normal 0 -0 1
 outer loop
  vertex 241.06305 -980.0564 45.970005
  vertex 240.78528 -981.6321 45.970005
  vertex 241.06305 -981.6564 45.970005
 endloop
endfacet
facet normal 0 -0 1
 outer loop
  vertex 241.06305 -980.0564 45.970005
  vertex 241.06305 -981.6564 45.970005
  vertex 241.34082 -981.6321 45.970005
 endloop
endfacet
facet normal 0 0 1
 outer loop
  vertex 239.83734 -981.0848 45.970005
  vertex 240.03455 -981.282 45.970005
  vertex 241.06305 -980.0564 45.970005
 endloop
endfacet
facet normal 0 -0 1
 outer loop
  vertex 241.06305 -980.0564 45.970005
  vertex 240.03455 -981.282 45.970005
  vertex 240.26306 -981.44196 45.970005
 endloop
endfacet
facet normal 0 -0 1
 outer loop
  vertex 241.06305 -980.0564 45.970005
  vertex 240.26306 -981.44196 45.970005
  vertex 240.51587 -981.5599 45.970005
 endloop
endfacet
facet normal 0 0 1
 outer loop
  vertex 239.48737 -980.33417 45.970005
  vertex 239.55957 -980.6036 45.970005
  vertex 241.06305 -980.0564 45.970005
 endloop
endfacet
facet normal 0 -0 1
 outer loop
  vertex 241.06305 -980.0564 45.970005
  vertex 239.55957 -980.6036 45.970005
  vertex 239.67737 -980.8564 45.970005
 endloop
endfacet
facet normal 0 -0 1
 outer loop
  vertex 241.06305 -980.0564 45.970005
  vertex 239.67737 -980.8564 45.970005
  vertex 239.83734 -981.0848 45.970005
 endloop
endfacet
endsolid 
